<?xml version="1.0" standalone="no"?>
<!DOCTYPE svg PUBLIC "-//W3C//DTD SVG 1.1//EN" "http://www.w3.org/Graphics/SVG/1.1/DTD/svg11.dtd" >
<svg xmlns="http://www.w3.org/2000/svg">
<metadata>Generated by IcoMoon</metadata>
<defs>
<font id="icomoon" horiz-adv-x="1024">
<font-face units-per-em="1024" ascent="960" descent="-64" />
<missing-glyph horiz-adv-x="1024" />
<glyph unicode="&#x20;" horiz-adv-x="512" d="" />
<glyph unicode="&#xe900;" glyph-name="cheveron-down" d="M475.802 309.76l36.198-36.198 289.638 289.638-72.397 72.397-217.242-217.19-217.242 217.19-72.397-72.397z" />
<glyph unicode="&#xe901;" glyph-name="cheveron-left" d="M360.96 496.998l-36.198-36.198 289.638-289.638 72.397 72.397-217.19 217.242 217.19 217.242-72.397 72.397z" />
<glyph unicode="&#xe902;" glyph-name="cheveron-right" d="M663.040 424.602l36.198 36.198-289.638 289.638-72.397-72.397 217.19-217.242-217.19-217.242 72.397-72.397 253.44 253.44z" />
<glyph unicode="&#xe903;" glyph-name="cheveron-up" d="M548.198 611.84l-36.198 36.198-289.638-289.638 72.397-72.397 217.242 217.19 217.242-217.19 72.397 72.397z" />
<glyph unicode="&#xe904;" glyph-name="notifications" d="M204.8 563.2c0 0.040 0 0.087 0 0.135 0 133.528 85.193 247.159 204.189 289.503l2.147 0.666c-0.815 4.852-1.28 10.442-1.28 16.14 0 56.554 45.846 102.4 102.4 102.4s102.4-45.846 102.4-102.4c0-5.699-0.465-11.288-1.361-16.734l0.081 0.593c120.875-43.156 205.824-156.653 205.824-289.991 0-0.11 0-0.22 0-0.33v0.017-307.2l153.6-102.4v-51.2h-921.6v51.2l153.6 102.4v307.2zM614.4 51.2c0-56.554-45.846-102.4-102.4-102.4s-102.4 45.846-102.4 102.4v0h204.8z" />
<glyph unicode="&#xe905;" glyph-name="user-solid-circle" d="M512-51.2c-282.77 0-512 229.23-512 512s229.23 512 512 512v0c282.77 0 512-229.23 512-512s-229.23-512-512-512v0zM358.4 665.6v-102.4c0-84.831 68.769-153.6 153.6-153.6s153.6 68.769 153.6 153.6v0 102.4c0 84.831-68.769 153.6-153.6 153.6s-153.6-68.769-153.6-153.6v0zM171.52 233.472c74.541-110.327 199.152-181.904 340.48-181.904s265.938 71.577 339.558 180.457l0.922 1.447c-99.91 46.989-216.992 74.415-340.48 74.415s-240.569-27.426-345.486-76.519l5.006 2.104z" />
<glyph unicode="&#xe906;" glyph-name="home3" d="M1024 352l-192 192v288h-128v-160l-192 192-512-512v-32h128v-320h320v192h128v-192h320v320h128z" />
<glyph unicode="&#xe907;" glyph-name="pencil" d="M864 960c88.364 0 160-71.634 160-160 0-36.020-11.91-69.258-32-96l-64-64-224 224 64 64c26.742 20.090 59.978 32 96 32zM64 224l-64-288 288 64 592 592-224 224-592-592zM715.578 596.422l-448-448-55.156 55.156 448 448 55.156-55.156z" />
<glyph unicode="&#xe908;" glyph-name="delivery_truck" d="M375.466 140.804c-18.842 0-34.134-15.292-34.134-34.134s15.292-34.134 34.134-34.134c18.842 0 34.134 15.292 34.134 34.134s-15.292 34.134-34.134 34.134zM819.2 140.804c-18.842 0-34.134-15.292-34.134-34.134s15.292-34.134 34.134-34.134c18.842 0 34.134 15.292 34.134 34.134s-15.292 34.134-34.134 34.134zM512 430.942h-238.934c-9.438 0-17.066-7.646-17.066-17.066s7.628-17.066 17.066-17.066h238.934c9.438 0 17.066 7.646 17.066 17.066s-7.628 17.066-17.066 17.066zM187.734 772.276c-37.65 0-68.266-30.618-68.266-68.266s30.618-68.266 68.266-68.266c37.65 0 68.266 30.618 68.266 68.266s-30.618 68.266-68.266 68.266zM1007.786 294.408h-235.178c-30.772 0-55.808 25.036-55.808 55.808v80.726c0 9.42 7.628 17.066 17.066 17.066s17.066-7.646 17.066-17.066v-80.726c0-11.964 9.71-21.674 21.674-21.674h162.304l-41.49 166.024c-5.7 22.818-26.146 38.776-49.682 38.776h-161.076v51.2c0 18.824-15.308 34.134-34.134 34.134h-297.42c14.234 28.706 24.354 55.706 24.354 93.866 0 98.816-84.224 179.182-187.734 179.182-103.504 0-187.728-80.366-187.728-179.182 0-48.076 15.958-78.388 36.13-116.77 3.174-6.024 6.486-12.322 9.916-19.030 45.312-88.388 111.378-197.222 124.62-218.88v-234.12c0-18.824 15.308-34.134 34.134-34.134h69.802c8.174-48.35 50.228-85.334 100.864-85.334s92.69 36.984 100.864 85.334h242.006c8.174-48.35 50.228-85.334 100.864-85.334s92.69 36.984 100.864 85.334h69.802c18.824 0 34.134 15.308 34.134 34.134v142.046c0 11.946-6.348 22.46-16.214 28.62zM187.734 601.608c-56.474 0-102.4 45.926-102.4 102.4s45.926 102.4 102.4 102.4c56.474 0 102.4-45.926 102.4-102.4s-45.928-102.4-102.4-102.4zM375.466 38.408c-37.65 0-68.266 30.618-68.266 68.266s30.618 68.266 68.266 68.266 68.266-30.618 68.266-68.266-30.616-68.266-68.266-68.266zM648.534 516.276v-17.118c0-84.668-68.88-153.548-153.548-153.548h-290.186v12.254c0.086 0.136 0.222 0.358 0.308 0.512 0.58 0.938 1.228 1.996 1.98 3.226 0.478 0.786 0.938 1.554 1.484 2.44 0.836 1.4 1.724 2.85 2.73 4.506 0.632 1.058 1.298 2.15 1.996 3.31 1.126 1.86 2.286 3.754 3.55 5.87 0.632 1.058 1.296 2.168 1.98 3.276 1.382 2.322 2.782 4.642 4.318 7.202 0.836 1.4 1.724 2.902 2.594 4.352 1.536 2.56 3.038 5.068 4.676 7.816 0.922 1.536 1.912 3.226 2.868 4.83 2.508 4.232 5.102 8.618 7.816 13.226 1.878 3.192 3.754 6.348 5.718 9.694 1.194 2.048 2.458 4.216 3.686 6.332 1.826 3.124 3.652 6.23 5.53 9.472 1.366 2.356 2.764 4.778 4.164 7.168 1.86 3.226 3.72 6.434 5.614 9.728 1.434 2.508 2.884 5.052 4.334 7.578 1.86 3.242 3.72 6.502 5.598 9.796 1.502 2.646 3.004 5.308 4.522 8.004 1.878 3.31 3.754 6.622 5.632 9.966 0.564 1.024 1.144 2.014 1.706 3.038h258.526c9.438 0 17.066 7.646 17.066 17.066s-7.628 17.066-17.066 17.066h-239.698c1.416 2.594 2.816 5.188 4.216 7.782 1.826 3.38 3.602 6.742 5.394 10.104 1.434 2.68 2.884 5.376 4.284 8.038 2.134 4.062 4.198 8.056 6.264 12.032 0.922 1.81 1.912 3.67 2.834 5.444 1.4 2.748 2.696 5.172 4.062 7.8h315.050v-68.262zM733.866 226.142c-9.438 0-17.066 7.646-17.066 17.066s7.628 17.066 17.066 17.066h34.134c9.438 0 17.066-7.646 17.066-17.066s-7.628-17.066-17.066-17.066h-34.134zM819.2 38.408c-37.65 0-68.266 30.618-68.266 68.266s30.618 68.266 68.266 68.266c37.65 0 68.266-30.618 68.266-68.266s-30.616-68.266-68.266-68.266z" />
<glyph unicode="&#xe909;" glyph-name="menu" d="M128 640h768c35.328 0 64 28.672 64 64s-28.672 64-64 64h-768c-35.328 0-64-28.672-64-64s28.672-64 64-64zM896 512h-768c-35.328 0-64-28.672-64-64s28.672-64 64-64h768c35.328 0 64 28.672 64 64s-28.672 64-64 64zM896 256h-768c-35.328 0-64-28.672-64-64s28.672-64 64-64h768c35.328 0 64 28.672 64 64s-28.672 64-64 64z" />
<glyph unicode="&#xe90a;" glyph-name="search_icon" d="M621.668 306.332c-44.476-31.692-98.895-50.332-157.668-50.332-150.221 0-272 121.779-272 272s121.779 272 272 272c150.221 0 272-121.779 272-272 0-75.111-30.445-143.111-79.667-192.333l191.916-191.916c8.802-8.802 8.588-22.915-0.249-31.751-8.898-8.898-23.052-8.948-31.751-0.249l-194.581 194.581zM464 288c132.548 0 240 107.452 240 240s-107.452 240-240 240c-132.548 0-240-107.452-240-240s107.452-240 240-240v0z" />
<glyph unicode="&#xe90b;" glyph-name="birthday" horiz-adv-x="896" d="M896 192c-56.040 0-62.52 64-149 64-86.86 0-93.65-64-149.5-64-55.39 0-62.908 64-149.5 64-85.684 0-94.436-64-149-64-56.296 0-62.404 64-149.5 64-87.094 0-93.306-64-149.5-64v160c0 53 43 96 96 96h32v288h128v-288h128v288h128v-288h128v288h128v-288h32c53 0 96-43 96-96v-160zM896-64h-896v192c86.712 0 93.534 64 149.5 64 55.902 0 62.506-64 149.5-64 85.686 0 94.434 64 149 64 56.296 0 62.402-64 149.5-64 86.714 0 93.534 64 149.5 64 54.976 0 62.504-64 149-64v-192zM192 768c-35.5 0-64 28.5-64 64 0 62 64 46 64 128 24 0 64-59 64-112s-28.5-80-64-80zM448 768c-35.5 0-64 28.5-64 64 0 62 64 46 64 128 24 0 64-59 64-112s-28.5-80-64-80zM704 768c-35.5 0-64 28.5-64 64 0 62 64 46 64 128 24 0 64-59 64-112s-28.5-80-64-80z" />
<glyph unicode="&#xe90c;" glyph-name="Mobile" d="M993.216 166.784l-192 128.299c-31.957 21.376-62.741 20.629-89.365-1.259-74.752-61.291-119.083-43.712-126.293-40.085-42.283 21.163-82.219 41.131-143.808 102.677-76.459 76.501-104.064 125.333-123.989 165.12-7.957 15.915-17.131 69.419 35.2 125.205 24.469 26.048 26.731 58.048 6.379 90.048-15.68 24.661-15.68 24.661-28.011 42.795-12.16 17.92-36.459 53.717-100.544 149.632-13.845 20.693-33.515 30.784-60.117 30.784-30.165 0-45.44-15.296-57.749-27.584l-64-64c-45.312-45.291-48.917-71.253-48.917-100.416 0-36.715 53.013-276.032 304.896-527.040 251.072-251.925 490.155-304.96 526.848-304.96h1.408c28.907 0.427 54.592 4.245 99.243 48.917l64 64c12.309 12.288 27.605 27.584 27.605 57.749 0 26.624-10.091 46.293-30.784 60.117zM966.251 79.083l-64-64c-35.925-35.925-51.541-36.16-70.507-36.416-2.624 0.085-232.341 27.157-496.683 292.459-262.208 261.291-292.352 494.827-292.395 496.875 0 18.923 0 33.835 36.395 70.251l64 64c11.243 11.2 15.723 15.083 27.605 15.083 13.931 0 19.776-4.544 24.661-11.84 64.192-96.085 88.533-131.968 100.715-149.867 12.011-17.664 12.011-17.664 27.307-41.749 12.117-19.051 6.443-29.504-1.493-37.952-66.581-70.912-56.747-144.448-42.261-173.461 21.397-42.795 50.987-95.211 131.989-176.213 66.453-66.453 111.424-88.917 154.88-110.677 11.968-5.952 27.584-9.259 44.011-9.259 28.288 0 73.493 9.451 128.427 54.507 7.787 6.421 13.333 7.168 16.832 7.168 6.123 0 13.461-2.837 21.781-8.427l192-128.256c7.275-4.843 11.819-10.688 11.819-24.64 0-11.883-3.883-16.384-15.083-27.584z" />
<glyph unicode="&#xe90d;" glyph-name="image" d="M959.884 832c0.040-0.034 0.082-0.076 0.116-0.116v-767.77c-0.034-0.040-0.076-0.082-0.116-0.116h-895.77c-0.040 0.034-0.082 0.076-0.114 0.116v767.772c0.034 0.040 0.076 0.082 0.114 0.114h895.77zM960 896h-896c-35.2 0-64-28.8-64-64v-768c0-35.2 28.8-64 64-64h896c35.2 0 64 28.8 64 64v768c0 35.2-28.8 64-64 64v0zM832 672c0-53.020-42.98-96-96-96s-96 42.98-96 96 42.98 96 96 96 96-42.98 96-96zM896 128h-768v128l224 384 256-320h64l224 192z" />
<glyph unicode="&#xe90e;" glyph-name="milk" d="M723.393 620.901l-98.884 195.924v45.132h5.447c9.024 0 16.34 7.314 16.34 16.34v65.362c0 9.026-7.316 16.34-16.34 16.34h-235.912c-9.024 0-16.34-7.314-16.34-16.34v-65.362c0-9.026 7.316-16.34 16.34-16.34h5.447v-45.132l-98.884-195.924c-11.992-23.759-21.386-63.22-21.386-89.835v-535.151c0-33.036 26.877-59.915 59.915-59.915h345.726c33.038 0 59.915 26.879 59.915 59.915v535.151c0 26.617-9.392 66.076-21.384 89.835zM410.384 927.319h203.229v-32.681h-203.229v32.681zM430.42 805.574c1.153 2.283 1.752 4.804 1.752 7.362v49.021h159.655v-49.021c0-2.558 0.599-5.079 1.752-7.362l62.187-123.213c-11.789-3.821-20.053-9.985-27.206-15.332-9.7-7.253-16.709-12.491-32.334-12.491s-22.635 5.238-32.334 12.491c-11.321 8.462-25.41 18.996-51.904 18.996-26.491 0-40.579-10.534-51.899-18.998-9.697-7.251-16.704-12.488-32.328-12.488s-22.63 5.238-32.328 12.488c-7.151 5.347-15.414 11.51-27.201 15.332l62.189 123.216zM712.096-4.085c0-15.018-12.216-27.234-27.234-27.234h-345.724c-15.018 0-27.234 12.216-27.234 27.234v535.151c0 21.513 8.188 55.908 17.881 75.114l23.391 46.344c9.379-1.736 15.249-6.105 22.691-11.667 11.318-8.464 25.408-18.998 51.897-18.998s40.579 10.534 51.897 18.998c9.697 7.251 16.704 12.488 32.328 12.488 15.626 0 22.635-5.238 32.334-12.491 11.321-8.464 25.41-18.996 51.902-18.996s40.581 10.534 51.904 18.996c7.443 5.564 13.314 9.933 22.696 11.669l23.391-46.346c9.691-19.201 17.881-53.599 17.881-75.111v-535.151zM360.925 99.404c-9.024 0-16.34-7.314-16.34-16.34v-65.362c0-9.026 7.316-16.34 16.34-16.34s16.34 7.314 16.34 16.34v65.362c0 9.026-7.316 16.34-16.34 16.34zM380.911 598.676c-8.057 4.065-17.883 0.832-21.951-7.222-7.255-14.375-14.375-44.285-14.375-60.388v-382.64c0-9.026 7.316-16.34 16.34-16.34s16.34 7.314 16.34 16.34v382.64c0 11.048 5.891 35.799 10.87 45.66 4.065 8.057 0.83 17.885-7.225 21.951zM481.193 796.596h61.612c9.024 0 16.34 7.314 16.34 16.34s-7.316 16.34-16.34 16.34h-61.612c-9.024 0-16.34-7.314-16.34-16.34s7.316-16.34 16.34-16.34z" />
<glyph unicode="&#xe90f;" glyph-name="camera" d="M304 352c0-114.876 93.124-208 208-208s208 93.124 208 208-93.124 208-208 208-208-93.124-208-208zM960 704h-224c-16 64-32 128-96 128h-256c-64 0-80-64-96-128h-224c-35.2 0-64-28.8-64-64v-576c0-35.2 28.8-64 64-64h896c35.2 0 64 28.8 64 64v576c0 35.2-28.8 64-64 64zM512 68c-156.85 0-284 127.148-284 284 0 156.85 127.15 284 284 284 156.852 0 284-127.15 284-284 0-156.852-127.146-284-284-284zM960 512h-128v64h128v-64z" />
<glyph unicode="&#xe910;" glyph-name="vessel" d="M959.424 762.016c0.032 0.16-0.032 0.288 0 0.416 0.192 1.856 0.576 3.648 0.576 5.568 0 124.416-402.144 128-448 128s-448-3.584-448-128c0-1.92 0.384-3.712 0.576-5.568 0.032-0.16-0.032-0.288 0-0.416l0.096-0.544c0.32-2.752 0.832-5.472 1.536-8.128l126.336-663.328c1.984-10.304 8.832-19.008 18.432-23.264 99.872-44.384 200.448-66.592 300.992-66.592s201.12 22.176 300.992 66.592c9.6 4.256 16.48 12.928 18.432 23.264l126.336 663.328c0.736 2.624 1.216 5.344 1.536 8.128l0.16 0.544zM868.032 624.224c-2.144-4.192-3.648-8.768-3.648-13.92-11.328-23.808-138.784-66.304-352.384-66.304s-341.056 42.496-352 64c0 5.152-1.472 9.824-3.648 14.144l-12.672 66.528c119.712-46.816 335.456-48.672 368.32-48.672s248.608 1.856 368.32 48.672l-12.288-64.448zM512 832c221.728 0 359.296-39.456 382.208-64-22.912-24.544-160.48-64-382.208-64s-359.296 39.456-382.208 64c22.912 24.544 160.48 64 382.208 64zM771.744 118.656c-172.448-72.32-347.072-72.32-519.488 0l-78.016 409.6c89.408-36.48 236.416-48.256 337.76-48.256s248.352 11.776 337.76 48.256l-78.016-409.6z" />
<glyph unicode="&#xe911;" glyph-name="case" d="M997.44 767.046l-480 176c-3.515 1.271-7.365 1.271-10.88 0l-480-176c-3.092-1.117-5.765-3.162-7.655-5.853s-2.904-5.899-2.905-9.187v-608c0.001-3.288 1.016-6.496 2.905-9.187s4.562-4.734 7.655-5.853l480-176c3.515-1.27 7.365-1.27 10.88 0l480 176c3.093 1.118 5.765 3.162 7.654 5.853s2.904 5.899 2.906 9.187v608c-0.002 3.288-1.016 6.496-2.906 9.187s-4.562 4.736-7.654 5.853zM736 829.127l-438.080-183.52-92.16 42.4 444 172.48 86.24-31.36zM272 622.406v-313.6l-34.72 52c-1.464 2.179-3.44 3.963-5.757 5.197-2.315 1.234-4.899 1.88-7.523 1.88s-5.208-0.646-7.523-1.88c-2.317-1.234-4.293-3.018-5.757-5.197l-34.72-52v358.4l96-44.8zM512 910.407l92.16-33.92-438.56-169.12-92 42.88 438.4 160.16zM496-9.114l-448 164.32v571.68l96-44.8v-426.080c-0.152-3.549 0.882-7.048 2.939-9.946s5.019-5.027 8.421-6.054c3.295-0.976 6.818-0.866 10.045 0.317 3.227 1.181 5.989 3.371 7.875 6.243l50.72 76.64 50.72-76c1.45-2.2 3.421-4.010 5.736-5.266 2.317-1.256 4.909-1.92 7.544-1.934 1.539-0.226 3.101-0.226 4.64 0 3.402 1.027 6.363 3.157 8.421 6.054s3.091 6.397 2.939 9.946v352l192-89.6v-527.52zM512 545.606l-174.88 81.6 442.4 185.6 170.88-62.56-438.4-204.64zM976 155.206l-448-164.32v526.88l448 209.12v-571.68z" />
<glyph unicode="&#xe912;" glyph-name="phone-fill" d="M923.307 262.542l-144.498 16.498c-34.702 3.982-68.836-7.964-93.298-32.427l-104.676-104.676c-160.996 81.92-292.978 213.333-374.898 374.898l105.244 105.244c24.462 24.462 36.409 58.596 32.427 93.298l-16.498 143.36c-6.827 57.458-55.182 100.693-113.209 100.693h-98.418c-64.284 0-117.76-53.476-113.778-117.76 30.151-485.831 418.702-873.813 903.964-903.964 64.284-3.982 117.76 49.493 117.76 113.778v98.418c0.569 57.458-42.667 105.813-100.124 112.64z" />
<glyph unicode="&#xe913;" glyph-name="packet-fille" d="M464 608h416l-144 201.6v118.4c0 19.2-12.8 32-32 32h-384c-19.2 0-32-12.8-32-32v-86.4l176-233.6zM416 544h-288v-448h288zM480 96h416v448h-416zM384 608l-121.6 163.2-118.4-163.2zM480 32v-96h384c19.2 0 32 12.8 32 32v64h-416zM416 32h-288v-64c0-19.2 12.8-32 32-32h256v96z" />
<glyph unicode="&#xe914;" glyph-name="lock" d="M512 917.333c-141.816 0-256-114.184-256-256v-42.667c-46.933 0-85.333-38.4-85.333-85.333v-426.667c0-46.933 38.4-85.333 85.333-85.333h512c46.933 0 85.333 38.4 85.333 85.333v426.667c0 46.933-38.4 85.333-85.333 85.333v42.667c0 141.816-114.184 256-256 256zM512 832c97.117 0 170.667-73.549 170.667-170.667v-42.667h-341.333v42.667c0 97.117 73.549 170.667 170.667 170.667zM512 405.333c46.933 0 85.333-38.4 85.333-85.333s-38.4-85.333-85.333-85.333c-46.933 0-85.333 38.4-85.333 85.333s38.4 85.333 85.333 85.333z" />
<glyph unicode="&#xe915;" glyph-name="icecream" d="M512.007 140.794l153.596 307.199h-307.199l153.603-307.199zM819.199 960h-614.397c-113.112 0-204.801-91.697-204.801-204.801v-614.397c0-113.112 91.69-204.801 204.801-204.801h614.397c113.104 0 204.801 91.69 204.801 204.801v614.397c0 113.104-91.69 204.801-204.801 204.801zM921.603 191.993c0-84.828-68.767-153.596-153.596-153.596h-512.007c-84.828 0-153.603 68.767-153.603 153.596v512.007c0 84.828 68.767 153.603 153.603 153.603h512c84.828 0 153.596-68.767 153.596-153.603v-512.007zM614.412 652.794c1.359-6.212-7.959-0.665 0 0-12.387 56.619-48.212 102.778-102.397 102.397-107.415-0.762-102.397-102.397-102.397-102.397s-92.75 8.587-102.397-51.206c-12.648-78.347 51.199-102.397 51.199-102.397h307.199c0 0 50.952 13.074 51.199 51.199 0.515 81.468-48.54 106.899-102.404 102.404z" />
<glyph unicode="&#xe916;" glyph-name="unlock" d="M466.56 960c-24.080 0.080-48.64-3.36-72.96-10.88-129.36-40.16-203.36-178.96-163.2-308.48v-1.28c5.28-14.56 19.44-60.64 28.16-88.96h-74.24c-33.68 0-61.44-27.76-61.44-61.44v-491.52c0-33.68 27.76-61.44 61.44-61.44h655.36c33.68 0 61.44 27.76 61.44 61.44v491.52c0 33.68-27.76 61.44-61.44 61.44h-537.6c-6.32 20.32-25.36 80.4-33.28 102.4h0.64c-33.52 108.080 27.52 223.040 135.68 256.64 107.92 33.52 223.52-27.2 257.28-135.040 0-0.080 0-0.56 0-0.64 4.64-16.24 26.88-88.32 26.88-88.32 1.84-7.36 7.6-13.2 14.96-14.96 7.44-1.84 15.2 0.56 20.24 6.24 5.040 5.76 6.56 13.76 3.84 20.88 0 0-23.12 74.56-26.88 87.68v0.64c-30.080 97.040-115.68 162.96-211.2 172.8-7.92 0.8-15.68 1.28-23.68 1.28zM184.32 509.44h655.36c11.36 0 20.48-9.12 20.48-20.48v-491.52c0-11.36-9.12-20.48-20.48-20.48h-655.36c-11.36 0-20.48 9.12-20.48 20.48v491.52c0 11.36 9.12 20.48 20.48 20.48zM512 345.6c-34.8 0-61.44-26.64-61.44-61.44 0-18.4 8.16-34.56 20.48-44.8v-57.6c0-22.56 18.4-40.96 40.96-40.96s40.96 18.4 40.96 40.96v57.6c12.32 10.24 20.48 26.4 20.48 44.8 0 34.8-26.64 61.44-61.44 61.44z" />
<glyph unicode="&#xe917;" glyph-name="calender" d="M810.667 789.333h-85.333v42.667c0 23.564-19.103 42.667-42.667 42.667s-42.667-19.103-42.667-42.667v0-42.667h-256v42.667c0 23.564-19.103 42.667-42.667 42.667s-42.667-19.103-42.667-42.667v0-42.667h-85.333c-70.692 0-128-57.308-128-128v0-512c0-70.692 57.308-128 128-128v0h597.333c70.692 0 128 57.308 128 128v0 512c0 70.692-57.308 128-128 128v0zM853.333 149.333c0-23.564-19.103-42.667-42.667-42.667v0h-597.333c-23.564 0-42.667 19.103-42.667 42.667v0 298.667h682.667zM853.333 533.333h-682.667v128c0 23.564 19.103 42.667 42.667 42.667v0h85.333v-42.667c0-23.564 19.103-42.667 42.667-42.667s42.667 19.103 42.667 42.667v0 42.667h256v-42.667c0-23.564 19.103-42.667 42.667-42.667s42.667 19.103 42.667 42.667v0 42.667h85.333c23.564 0 42.667-19.103 42.667-42.667v0z" />
<glyph unicode="&#xe918;" glyph-name="logo_EN" horiz-adv-x="1151" d="M513.515 706.727c-164.507-12.421-290.537-47.867-381.728-107.55-31.205-20.298-72.71-62.409-85.434-86.343-13.936-26.357-20.298-52.715-17.875-76.649 4.847-53.624 34.234-95.432 75.134-107.853 32.114-9.392 89.373-7.877 160.265 4.544 9.089 1.515 38.173 3.938 65.136 4.847 56.653 2.424 89.373-0.909 149.662-14.845 38.173-8.786 44.838-9.392 98.462-9.695 51.2 0 59.986 0.606 79.072 6.665 24.54 7.877 37.87 16.057 50.291 31.508 7.271 8.786 9.695 16.36 13.027 39.385 2.424 15.754 4.544 33.022 4.544 38.476 0 9.392-0.606 9.695-11.815 9.695-19.995 0-26.963 8.786-29.69 37.87-1.515 13.33-3.636 24.237-5.453 24.237-3.938 0-12.421-17.875-16.966-36.355-5.15-19.995-10.604-26.357-22.116-25.146l-9.392 0.909-0.909 28.175c-0.606 20.904-1.818 27.872-4.847 27.872-6.362 0-9.695-6.059-16.966-29.69-6.968-22.722-11.512-27.872-25.449-27.872-5.756 0-8.18 2.121-9.695 7.574-1.515 6.665-2.424 6.968-6.665 2.727-11.512-11.815-31.811-13.33-42.111-3.636-6.665 6.059-7.271 6.059-12.724 1.212-14.845-13.633-39.082-7.877-46.656 10.907l-3.938 9.392-8.18-10.907c-10.907-14.542-17.875-18.178-27.266-14.542-9.089 3.636-11.815 10.604-13.936 38.173-2.424 26.66-7.271 27.569-17.572 3.030-9.089-21.51-19.995-36.961-29.69-41.505-9.998-4.544-22.419-0.606-26.357 7.877l-3.030 7.271-6.665-7.271c-9.695-11.512-28.478-13.027-39.688-3.636l-8.786 7.574-10.301-6.968c-19.086-13.027-33.931-7.271-39.688 15.148-1.818 7.574-3.333 27.872-3.333 45.444 0 35.749-1.212 41.202-9.695 41.202-8.18 0-16.057-19.692-26.66-65.742-8.786-39.688-12.724-46.353-26.054-46.353-12.421 0-13.936 6.059-10.604 39.991 1.818 17.269 3.938 40.293 5.15 51.503 2.121 23.934 9.089 33.628 19.995 26.963 5.453-3.333 6.968-3.030 12.724 3.636 15.451 18.178 36.052 24.843 50.897 16.966 11.512-6.362 18.178-27.872 19.692-66.954 1.212-23.934 3.030-35.749 5.15-34.84 1.818 0.606 8.18 10.301 14.239 21.813 13.936 25.751 21.207 31.508 39.688 31.811 12.421 0 15.148-1.212 21.207-9.089 3.636-4.847 8.18-9.089 9.998-9.089 7.271 0 13.33-10.907 14.239-25.751l0.909-15.148 8.483 16.663c8.483 17.269 10.301 28.478 5.15 31.811-5.453 3.333-3.333 22.419 3.030 28.781 11.815 11.815 23.025 6.059 26.357-13.027 1.515-9.695 3.030-10.907 14.845-13.936 15.451-3.938 19.389-9.998 19.389-29.387 0-12.724 0.606-13.936 4.241-10.301 2.121 2.424 8.786 13.33 14.239 23.934 10.604 19.692 19.389 26.963 28.781 23.328 4.544-1.818 4.847-5.15 3.030-29.084l-2.121-27.266h7.574c5.756 0 8.18 2.727 12.118 12.118 2.727 6.665 4.847 17.572 4.847 23.934 0 6.665 0.909 13.936 1.818 16.663 2.424 6.059 13.027 6.059 21.813 0 6.059-4.241 6.665-7.271 6.665-30.296 0-22.722 0.606-25.751 5.15-24.843 6.362 1.212 18.48 18.783 20.904 29.387 2.727 13.027 6.059 16.966 14.845 17.875 5.756 0.909 9.392-0.606 11.512-3.938 2.424-4.544 3.636-4.241 10.907 2.727 4.847 4.544 13.33 8.786 19.389 9.998 9.089 1.212 12.118 0.303 18.783-6.665l8.18-7.877 8.18 7.574c18.48 17.572 39.385 16.36 47.262-2.727 2.424-5.756 4.544-19.389 4.544-30.296 0-15.451 1.212-20.298 4.847-21.813 6.362-2.424 10.301 4.241 10.301 17.875 0 32.72 24.54 53.927 57.562 49.382 17.875-2.424 29.084-12.421 32.114-27.872 2.727-14.542-3.636-41.202-11.815-48.776-6.968-6.665-27.266-12.421-43.929-12.724-13.027 0-14.239-4.241-9.998-35.446 6.059-42.414 21.813-65.742 54.836-80.89 24.843-11.512 45.747-14.845 81.799-13.027 38.476 1.818 76.043 12.118 110.58 30.296 32.114 16.966 69.378 53.321 83.011 80.89 27.266 56.653 14.845 126.94-30.902 173.595-55.441 56.047-153.6 90.282-305.079 106.641-41.505 4.544-200.256 8.483-234.793 5.756zM981.586 575.243c12.421-12.421 3.938-61.198-13.027-75.437-8.786-6.968-4.241-33.628 5.453-33.628 4.544 0 16.36 14.845 26.66 33.628 3.938 6.968 6.362 8.786 8.786 6.362 4.847-4.847-14.542-44.232-28.478-56.653-14.239-13.027-23.328-13.33-36.658-1.515-9.998 8.786-10.604 8.786-15.451 3.333-13.027-14.239-35.446-15.451-41.808-2.121l-3.030 7.271-6.665-7.271c-3.938-4.847-10.907-8.18-18.783-9.392-27.569-3.636-39.991 26.66-24.54 60.592 8.786 19.086 19.086 26.357 38.173 26.357 9.998 0 13.027-1.515 18.48-9.089 3.636-4.847 7.877-9.089 9.695-9.089 8.483 0 14.542-10.301 14.542-24.843 0-15.451 1.515-16.966 10.907-10.301 4.847 3.636 6.059 9.695 7.574 37.264 1.212 19.692 4.241 37.87 7.271 45.747 9.392 22.722 28.175 31.508 40.899 18.783zM968.256 549.491c-0.909-2.727-1.818-7.877-1.515-11.512 0.303-4.241 1.212-2.727 2.727 3.938 2.727 11.209 2.121 15.754-1.212 7.574zM867.067 496.17c-11.512-12.118-10.907-33.325 0.606-29.084 3.938 1.515 19.995 28.781 19.995 33.931 0 4.241-15.754 0.606-20.601-4.847zM315.38 496.17c-6.059-6.665-10.907-25.146-7.877-30.296 1.515-1.818 3.636-1.818 6.968 0.909 5.15 4.544 21.813 29.69 21.813 33.325 0 5.15-15.148 2.121-20.904-3.938zM766.788 489.505c-3.333-6.968-7.271-17.572-8.18-23.025-2.121-9.695-1.818-9.998 5.15-7.877 14.239 4.241 20.904 13.633 20.904 29.387 0 12.421-0.909 14.542-5.756 14.542-3.938 0-7.877-4.544-12.118-13.027zM133.302 256.227c5.15-8.483 7.574-18.178 8.786-33.325 0.606-6.968 6.362 2.424 6.362 10.301 0 4.847 2.727 14.542 6.059 20.904 5.15 10.301 5.453 12.118 1.515 12.118-2.424 0-4.544-1.212-4.544-2.424 0-1.515-1.818-5.15-4.241-8.18-4.241-5.756-4.544-5.756-8.18 2.424-2.121 4.544-5.453 8.18-7.574 8.18-3.030 0-2.424-2.727 1.818-9.998zM175.716 260.469c-7.877-15.148 0.303-39.688 13.633-39.688 8.18 0 16.663 11.512 16.663 23.025 0 16.36-4.544 22.419-16.663 22.419-7.271 0-11.512-1.818-13.633-5.756zM198.741 252.289c4.241-16.36-5.756-30.599-15.451-22.419-6.362 5.453-6.059 26.054 0.606 29.69 6.968 4.241 12.724 1.212 14.845-7.271zM221.16 249.562c0-12.724 1.515-18.178 6.059-22.722 7.271-7.271 11.512-7.574 20.601-1.212 5.756 3.938 6.665 7.271 6.665 22.722 0 22.722-5.453 23.631-6.665 0.909-1.818-31.508-20.601-29.084-20.601 2.424 0 7.877-1.212 14.542-3.030 14.542-1.515 0-3.030-7.574-3.030-16.663zM272.663 245.321c0-21.51 4.847-32.72 6.665-14.845 1.212 13.633 6.665 13.633 14.542 0.303 6.968-11.512 12.421-9.695 6.059 2.121-2.727 4.847-2.424 7.574 0 10.604 1.818 2.424 3.030 7.877 2.424 12.724-0.909 7.877-2.121 8.483-15.148 9.392l-14.542 0.909v-21.207zM292.052 261.378c2.727-0.909 4.847-4.241 4.847-7.271 0-6.059-9.998-10.907-15.148-7.574-4.241 2.727-3.636 12.724 0.909 14.542 1.818 0.909 3.938 1.818 4.241 1.818 0.303 0.303 2.424-0.606 5.15-1.515zM342.949 244.412c0.606-12.724 2.121-21.813 3.938-21.207 3.030 0.606 3.636 1.818 4.241 12.724 0.303 4.544 2.424 6.059 9.392 6.059 8.18 0 9.089-0.909 9.089-9.089 0-4.847 1.515-9.089 3.030-9.089 1.818 0 3.030 9.089 3.030 21.207s-1.212 21.207-3.030 21.207c-1.515 0-3.030-3.938-3.030-9.089 0-8.18-0.909-9.089-9.089-9.089-8.786 0-10.301 2.121-9.392 13.027 0.606 3.030-1.212 5.15-4.241 5.15-3.938 0-4.544-3.333-3.938-21.813zM394.452 244.412l0.909-22.116 9.998-0.909c15.754-1.515 23.025 3.030 8.18 5.15-9.392 1.515-12.118 3.030-12.118 7.877 0 4.241 2.424 6.362 8.483 6.968 10.301 1.212 10.907 6.665 0.606 6.665-7.271 0-13.33 7.271-9.695 11.209 0.909 0.909 6.059 2.121 11.209 2.424 15.754 1.212 13.936 4.544-2.727 4.544h-15.754l0.909-21.813zM448.076 258.045c-12.118-30.902-13.633-40.293-5.15-31.811 4.544 4.544 19.389 4.847 22.116 0.606 0.909-1.515 3.030-3.030 4.544-3.030 2.424 0-2.727 17.875-10.604 37.264-3.030 7.574-7.271 6.362-10.907-3.030zM460.497 239.867c0-2.121-2.727-3.938-6.059-3.938-6.665 0-6.968 0.909-3.938 11.815 1.818 6.968 2.121 6.968 6.059 1.818 2.121-3.333 3.938-7.574 3.938-9.695zM488.369 244.412l0.909-22.116 13.027-0.909c7.574-0.606 12.724 0.303 12.724 2.121s-4.847 3.333-10.604 3.333h-10.604v19.692c0 11.512-1.212 19.692-3.030 19.692-2.121 0-3.030-8.18-2.424-21.813zM528.663 263.195c0.909-1.515 3.938-3.030 6.362-3.030 3.333 0 4.241-4.241 4.241-17.875 0-9.998 1.515-19.086 3.030-19.995 1.818-1.212 3.030 5.453 3.030 17.572 0 16.966 0.909 19.692 6.968 22.722 5.756 2.727 4.241 3.333-9.392 3.333-9.998 0.303-15.451-0.909-14.239-2.727zM572.592 245.321c0-21.813 4.847-32.417 6.665-14.845 0.909 8.786 1.818 9.998 9.998 9.998 7.574 0 9.089-1.212 9.998-8.18 2.121-16.966 6.665-7.877 6.665 12.724s-4.544 29.69-6.665 13.027c-0.909-7.271-2.424-8.483-9.998-8.483s-9.089 1.212-9.998 8.483c-2.121 16.663-6.665 7.574-6.665-12.724zM645.302 245.321c0-20.904 4.847-32.417 6.665-16.36 0.606 6.362 3.030 8.786 10.301 10.604 13.633 3.333 18.178 9.695 13.936 19.086-3.030 6.362-5.453 7.574-17.269 7.574h-13.633v-20.904zM671.962 253.501c-2.121-5.756-10.301-9.695-15.754-7.574-6.362 2.424-6.362 13.33 0.606 15.148 6.665 1.515 16.36-3.333 15.148-7.574zM697.411 247.441c-7.877-22.116-8.786-31.205-2.424-22.722 2.121 2.727 7.877 5.15 12.421 5.15s10.301-2.424 12.421-5.15c3.333-4.544 3.938-4.544 4.241-0.909 0.303 8.18-13.027 42.414-16.36 42.414-1.818 0-6.362-8.483-10.301-18.783zM712.862 245.018c0.909-3.938 0-6.968-2.727-8.18-6.362-2.424-8.18 0.606-6.059 9.695 2.121 8.786 6.362 7.877 8.786-1.515zM739.825 244.412c0.909-22.419 6.059-30.296 7.877-12.118 1.212 12.421 5.453 12.421 13.027-0.909 7.574-12.421 13.936-11.209 7.271 1.515-3.938 7.574-3.938 8.786 0 12.118 5.453 4.544 5.756 12.724 0.909 17.572-2.121 2.121-9.695 3.636-16.663 3.636h-13.33l0.909-21.813zM765.879 254.712c0.606-1.818-2.121-4.847-5.756-6.968-5.756-3.030-7.574-2.727-10.907 1.818-5.15 7.574 0.303 14.239 9.089 10.907 3.333-1.212 6.968-3.938 7.574-5.756zM786.178 262.892c1.212-1.818 3.938-2.424 6.362-1.515 3.333 1.212 4.241-2.424 4.241-17.875 0-10.604 1.515-20.298 3.030-21.207 1.818-1.212 3.030 5.453 3.030 17.269 0 18.48 0.606 19.692 8.483 22.722 7.271 3.030 6.362 3.333-9.392 3.636-11.815 0.303-16.966-0.909-15.754-3.030zM833.136 242.897c0-25.146 4.847-27.872 6.665-3.938l0.909 13.633 10.301-16.057c5.453-8.483 11.209-14.845 12.724-13.936 3.636 2.121 3.333 43.626-0.303 43.626-1.515 0-3.030-6.059-3.030-13.633s-0.909-13.633-2.424-13.633c-1.212 0-5.756 6.059-10.301 13.633s-9.695 13.633-11.512 13.633c-1.818 0-3.030-9.392-3.030-23.328zM885.245 244.412l0.909-22.116 9.998-0.909c15.754-1.515 23.025 3.030 8.18 5.15-9.392 1.515-12.118 3.030-12.118 7.877 0 4.241 2.424 6.362 8.483 6.968 11.209 1.212 10.604 6.665-0.909 6.665-6.968 0-9.089 1.212-9.089 6.059 0 5.756 3.030 7.271 11.512 6.362 1.818-0.303 6.059 0.909 9.089 2.424 3.938 2.424 1.515 3.030-10.907 3.333h-16.057l0.909-21.813zM930.083 245.321c0-21.51 4.847-32.417 6.665-14.845 1.212 13.633 6.665 13.633 14.542 0.303 6.968-11.512 12.421-9.695 6.362 1.818-2.424 4.241-2.121 7.877 1.212 14.239 6.665 12.724 1.515 19.389-15.148 19.389h-13.633v-20.904zM954.32 254.409c0-6.362-6.665-9.998-13.633-7.574-2.424 1.212-4.544 4.544-4.544 7.574 0 4.241 2.121 5.756 9.089 5.756s9.089-1.515 9.089-5.756z" />
<glyph unicode="&#xe919;" glyph-name="logo_ML" horiz-adv-x="1310" d="M627.668 753.839c-79.947-5.103-154.45-15.649-222.15-32.319-186.429-45.587-316.385-140.162-329.993-240.181-8.845-65.318 24.154-130.296 76.205-150.708 17.69-7.144 25.515-8.165 67.7-7.825 29.938 0 66.679 2.722 98.658 7.484 100.019 14.629 166.017 13.268 248.346-4.763 20.752-4.423 47.288-9.866 59.535-11.567 110.905-16.33 221.81 1.021 265.015 41.504 21.433 20.072 24.494 32.659 27.556 109.204 1.701 37.422 4.763 74.504 6.804 81.988 11.567 38.443 28.917 56.133 54.772 56.133 9.526 0 21.433-2.381 26.876-5.103 9.185-4.763 11.907-4.423 34.7 3.062 24.494 7.825 24.835 8.165 27.556 22.113 3.062 15.309 10.546 20.752 29.938 20.752 12.587 0 15.649-6.804 10.886-24.835-3.742-13.608-3.402-13.948 10.546-28.237 24.494-24.154 32.999-68.38 19.391-98.998-13.268-28.917-60.896-36.742-76.545-12.928l-5.783 8.845-11.227-12.247c-9.866-10.206-13.608-11.907-27.216-11.907-18.031 0-30.618 5.443-42.865 18.711-7.144 7.825-8.505 12.247-8.505 30.278 0 18.371 1.701 24.154 11.227 39.463 10.206 16.33 10.546 17.69 3.402 12.928-4.423-2.722-11.567-11.907-16.33-20.072-7.484-13.268-8.505-18.711-8.505-50.69 0-55.112 7.144-107.503 17.010-128.255 32.319-65.999 130.637-75.864 213.305-21.433 52.731 34.7 82.328 84.029 86.751 144.585 2.381 35.041-2.722 61.916-17.69 92.194-15.649 32.319-36.742 54.772-72.803 78.926-67.359 45.247-169.419 74.163-308.901 87.431-49.669 4.763-207.862 8.845-247.665 6.464zM816.819 609.254c2.722-5.103 3.402-26.195 2.381-66.679l-1.021-59.535-12.928-11.567-12.928-11.907-53.411 2.381c-29.257 1.361-54.772 3.402-56.133 4.763-3.742 3.402-3.742 12.247-0.68 31.639 2.041 13.268 1.701 15.989-2.722 15.989-8.165 0-18.371-15.649-20.752-31.979-2.722-18.371-8.845-24.494-19.051-19.051-29.257 15.649-4.763 79.607 33.68 87.091 14.969 3.062 28.917-11.907 34.36-37.082l4.423-19.391h28.237c15.309 0 30.278 1.021 33.34 2.041 4.763 1.701 5.443 9.866 5.443 54.432 0 49.329 0.34 52.391 7.484 59.195 9.866 9.185 25.175 8.845 30.278-0.34zM892.683 595.647c11.567-13.948 19.391-41.504 19.391-70.421 0.34-41.845-12.928-60.555-42.525-59.875-21.433 0.68-31.979 5.443-36.401 17.35-4.082 11.227-0.68 28.237 5.783 28.237 2.381 0 10.886-2.381 18.371-5.443 18.371-7.484 21.092-4.082 20.752 23.474-0.34 42.525-9.185 52.731-19.051 22.793-6.124-18.711-9.185-21.773-18.371-18.711-13.608 4.082-15.989 27.896-5.103 50.009 12.587 24.494 41.504 30.958 57.153 12.587zM268.417 597.688c5.443-2.722 15.309-11.227 22.113-19.391l12.247-14.288 5.443 7.825c8.845 12.247 35.381 27.556 47.968 27.556 24.835 0 36.742-28.237 36.742-85.39 0-43.205-2.041-47.288-25.855-47.288-8.845 0-17.010 1.361-18.031 3.062-1.021 1.361-0.34 7.825 1.361 14.288 5.103 17.35 11.227 70.761 8.845 76.885-2.041 4.763-4.082 3.742-12.587-4.423-13.948-13.268-25.515-36.401-30.278-61.576-3.742-18.371-5.443-21.433-15.649-26.876-7.484-4.082-12.587-5.103-14.969-2.722-1.701 1.701-7.144 23.134-11.907 47.288-12.928 64.978-15.989 64.978-30.618 2.041-5.103-21.773-9.866-42.185-10.886-45.247-2.381-9.185-17.010-7.484-27.216 2.722-8.165 8.165-8.505 10.206-6.804 34.7 4.082 55.112 24.835 95.936 48.989 95.936 6.124 0 15.989-2.381 21.092-5.103zM495.67 595.987c19.051-11.567 41.845-69.741 41.845-106.142 0-6.804 3.062-12.587 10.206-18.711 8.845-7.144 10.206-10.886 10.206-24.835s-1.361-17.69-8.845-23.474c-10.206-7.825-20.752-8.845-33.34-3.402-9.526 4.423-17.35 20.072-14.629 29.938 1.701 6.804-2.381 75.184-6.124 101.72-1.701 10.546-3.742 14.288-8.165 14.288-15.309 0-34.020-35.721-34.36-64.978 0-13.608-1.701-21.773-6.124-26.876-5.783-7.144-7.484-7.484-18.711-3.742-6.804 2.381-13.268 7.144-14.288 10.886-3.062 9.866 7.825 59.875 18.371 83.009 16.33 35.721 39.123 47.628 63.957 32.319zM592.967 550.4c21.773-9.185 28.917-25.175 21.092-47.628-11.567-34.020-45.247-46.948-57.834-22.453-5.783 11.227-6.804 39.463-1.701 42.525 2.041 1.021 3.402 5.103 3.402 8.845 0 7.144 14.288 23.474 20.412 23.474 2.041 0 8.505-2.041 14.629-4.763zM525.268 455.144c-2.041-5.783 0.68-12.247 5.783-12.247 4.082 0 4.082 12.587-0.34 15.309-2.041 1.021-4.423-0.34-5.443-3.062zM574.937 518.421c0-7.484 4.423-14.288 9.185-14.288 7.144 0 4.082 14.969-3.062 16.33-3.402 0.68-6.124-0.34-6.124-2.041zM1044.412 561.286c0.34-2.381 3.062-9.866 6.804-16.33l6.464-11.907 0.34 16.33c0 13.608-1.021 15.989-6.804 15.989-3.742 0-6.804-2.041-6.804-4.082zM1090.679 542.575c-2.722-21.773 1.361-36.401 10.886-37.762 6.804-1.021 7.484 0.34 7.484 14.629 0 15.309-8.165 39.123-13.608 39.123-1.361 0-3.402-7.144-4.763-15.989zM1010.392 527.266c-9.866-15.989-8.165-29.938 3.402-29.938 7.484 0 10.206 6.464 10.206 23.814 0 17.69-5.103 19.732-13.608 6.124zM637.874 259.189c-1.361-2.381-0.68-5.783 1.361-7.825 2.722-2.722 3.742-2.041 3.742 2.381 0 3.402 2.041 5.443 4.423 4.763 2.722-1.021 4.423-11.227 5.103-30.958 0.68-16.67 2.381-29.597 4.423-29.597s3.062 12.247 2.381 31.639c-1.021 30.958-1.021 31.298-10.206 32.319-4.763 0.68-9.866-0.68-11.227-2.722zM793.345 256.128c2.381-3.742 3.062-7.825 2.041-8.845-1.021-1.361-12.247-2.381-24.494-2.381-18.711 0-23.134-1.361-26.195-6.464-4.763-9.185-2.381-37.762 3.062-39.803 3.402-1.021 4.082 2.381 2.381 15.309-2.381 17.35 3.742 31.639 11.227 26.876 5.103-3.062 5.443-44.906 0.68-47.968-1.701-1.021-3.062-6.124-3.062-11.227 0.34-7.825 0.68-7.825 2.041-1.701 0.68 4.082 3.742 9.185 6.464 11.227 3.742 3.402 5.783 2.041 9.866-7.144l4.763-11.567 0.34 9.526c0 5.443-2.041 10.206-5.103 11.227-6.804 2.722-6.804 35.041-0.34 44.226 6.464 8.845 9.866 4.423 5.443-7.144-8.165-21.433 6.804-42.525 20.412-28.917 7.825 7.825 8.845 19.051 2.722 32.999-2.041 5.103-4.082 13.268-4.082 18.031-0.34 5.103-2.722 8.845-6.464 9.526-5.443 1.021-5.783 0.34-1.701-5.783zM798.788 219.386c-1.361-21.092-9.526-24.154-9.526-3.402 0 8.165 1.021 15.989 2.381 17.010 5.443 5.783 8.165 1.021 7.144-13.608zM1121.297 259.87c-0.68-1.361-0.34-4.763 1.361-7.484 2.381-4.082 3.402-4.082 5.443 1.021 5.103 13.268 8.165 4.082 8.165-24.835 0-24.835 1.021-30.618 5.103-30.618s5.103 5.103 5.103 26.876c0 14.969-1.021 29.257-2.041 32.319-2.041 5.783-20.072 7.825-23.134 2.722zM153.090 238.777c-10.206-10.206-8.845-40.824 2.041-40.824 3.742 0 3.742 2.041 1.021 9.185-3.742 9.526-1.361 26.876 4.082 30.278 2.381 1.361 2.722-2.381 1.361-9.526-1.021-6.124-0.68-15.649 1.361-20.752 3.062-8.165 5.443-9.526 14.629-8.505 11.907 1.021 11.567 0.34 12.587 30.958 0.68 18.711 7.144 8.505 7.144-11.227 0-15.649 1.021-20.412 5.103-20.412 3.402 0 5.103 5.443 5.783 21.433 1.021 20.072 1.361 21.092 9.526 21.092 10.546 0 13.608-10.546 3.742-13.608-15.989-5.103-10.886-30.278 5.783-28.237 7.144 0.68 9.526 3.402 11.227 11.227 1.701 8.845 2.381 9.526 4.763 3.742 4.763-11.227-5.103-24.154-19.732-25.175-13.948-1.361-16.67-5.783-5.443-9.185 9.866-3.402 25.175 4.082 29.938 13.948 5.443 12.247 4.763 19.732-3.062 29.597-3.742 4.763-6.804 10.206-6.804 12.247 0 6.804-12.247 9.526-45.247 9.866-28.917 0.68-34.020-0.34-39.803-6.124zM182.007 235.035c1.361-1.701-0.34-6.464-3.402-9.866-5.103-5.783-5.103-6.464 0.34-9.526 3.742-2.041 5.103-5.443 3.742-9.185-3.402-8.505-10.546-4.423-11.907 6.464-2.381 18.371 5.103 32.659 11.227 22.113zM230.655 212.582c-1.361-13.268-9.526-14.288-9.526-1.361 0 7.144 1.701 10.546 5.443 10.546s4.763-2.722 4.082-9.185zM274.201 238.097c-6.464-9.185-7.144-26.536-1.021-34.7 3.062-4.082 7.825-5.783 15.989-4.763 10.206 0.68 11.907 2.381 11.907 9.526 0 10.206-11.227 13.608-17.35 5.103-3.742-5.103-4.423-5.103-6.464 1.361-1.021 4.082-1.021 10.206 0 14.288 2.041 6.464 2.722 6.464 6.464 1.361 6.124-8.505 17.35-5.103 17.35 5.103 0 7.144-1.701 8.845-10.886 9.526-7.825 0.68-11.907-1.021-15.989-6.804zM295.973 235.375c0-3.742-1.361-6.804-3.402-6.804-1.701 0-3.402 3.062-3.402 6.804s1.701 6.804 3.402 6.804c2.041 0 3.402-3.062 3.402-6.804zM295.973 206.118c0-2.722-1.361-4.763-3.402-4.763-1.701 0-3.402 3.062-3.402 7.144 0 3.742 1.701 5.783 3.402 4.763 2.041-1.021 3.402-4.423 3.402-7.144zM324.89 237.417c-6.464-9.526-5.783-36.401 0.68-38.443 2.722-1.021 3.402 2.041 2.041 10.546-2.722 16.67 4.423 33.34 13.948 31.979 8.165-1.361 11.907-12.928 4.082-12.928-2.722 0-6.804-3.402-9.185-7.144-5.443-10.546 1.021-23.474 11.907-23.474 15.649 0 19.051 35.721 4.423 44.906-8.505 5.443-22.453 2.722-27.896-5.443zM352.106 211.561c0-4.423-2.041-8.505-4.082-9.185-3.062-1.021-4.423 2.041-4.423 9.185s1.361 10.206 4.423 9.526c2.041-1.021 4.082-5.103 4.082-9.526zM381.363 239.118c-3.402-6.124-2.041-10.546 3.742-10.546 1.361 0 2.722 3.062 2.722 7.144s1.701 6.464 4.423 5.783c5.103-2.041 5.783-37.422 0.34-39.123-2.041-0.68-4.763 2.041-5.783 6.124-1.021 3.742-3.402 6.124-5.443 4.763-6.464-3.742 2.381-15.309 11.567-15.309 9.526 0 15.309 8.845 15.309 23.814 0 5.783-1.701 13.608-3.402 17.35-4.763 8.165-19.051 8.505-23.474 0zM427.29 240.138c-3.402-9.185-2.381-33.68 2.041-38.102 5.443-5.443 18.711-5.103 22.113 0.34 1.361 2.041 3.402 11.907 4.423 21.092 1.021 11.907 3.062 17.010 6.804 17.010 5.783 0 7.144-21.092 2.381-34.7-2.041-5.783-1.701-7.825 2.041-7.825 6.464 0 9.185 7.484 9.185 25.175 0 15.989-4.423 22.453-15.649 22.453-9.866 0-12.587-4.763-14.969-25.175-1.021-9.185-3.402-17.35-5.783-18.031-5.783-2.041-8.845 17.010-4.763 30.958 2.381 9.526 2.041 12.247-1.361 12.247-2.381 0-5.443-2.381-6.464-5.443zM493.289 214.623v-30.958l-9.185 2.041c-9.185 2.041-9.185 2.041-3.062-3.062 8.505-6.464 10.546-6.464 17.010 0.34 7.825 7.484 7.825 62.597 0.34 62.597-4.082 0-5.103-5.783-5.103-30.958zM525.608 239.118c-7.825-8.845-6.124-38.783 2.722-40.484 5.103-1.021 5.443 0 2.041 7.144-4.423 9.526-1.361 32.999 4.082 32.999 2.041 0 2.381-4.423 1.361-11.227-3.062-15.989 3.062-29.597 13.268-29.597 11.907 0 17.010 10.886 14.288 30.278-1.701 14.288-1.361 14.969 3.062 9.185 3.062-3.742 5.103-13.948 5.103-23.134 0-8.845 1.701-16.33 3.402-16.33 2.041 0 3.402 8.165 3.402 18.371 0 11.227 1.701 19.732 4.763 22.113 3.742 3.062 4.082 0.68 2.722-13.268-1.701-19.391 2.722-27.216 14.969-27.216 10.886 0 15.989 13.608 12.928 31.979-2.041 12.928-1.701 13.608 3.742 8.845 4.423-3.742 5.443-8.505 4.423-22.793-1.021-12.587-0.34-18.031 2.722-18.031 8.845 0 10.886 28.577 3.062 39.803-5.103 7.144-7.825 7.484-50.69 7.484-39.803 0-46.267-0.68-51.37-6.124zM555.205 229.252c1.701-11.567-1.361-24.835-5.783-25.515-3.742-0.68-6.804 22.793-3.742 30.278 3.062 7.825 7.825 5.443 9.526-4.763zM604.874 218.365c-0.68-8.165-2.722-15.309-5.103-15.989-5.783-2.041-8.845 16.67-4.423 27.896 5.103 13.608 10.886 6.464 9.526-11.907zM686.182 239.458c-5.783-6.124-7.825-25.855-3.742-36.061 1.361-3.402 6.124-5.443 11.907-5.443 7.484 0 10.206 2.041 11.907 8.165 2.381 9.866-3.742 22.453-10.886 22.453-8.165 0-4.082 11.907 4.423 12.928 10.206 1.361 15.649-10.206 13.608-28.577-1.021-10.546-0.34-14.969 2.722-14.969 8.845 0 9.526 32.319 0.68 43.546-4.763 6.124-24.154 5.103-30.618-2.041zM697.409 211.561c0-5.443-1.361-10.206-3.062-10.206-4.082 0-8.165 12.587-5.443 17.010 4.082 6.804 8.505 3.402 8.505-6.804zM908.332 223.468v-22.113h-11.567c-9.866 0-11.227 1.021-9.866 7.825 2.041 10.206-6.464 17.35-17.35 14.629-9.185-2.381-13.268-10.206-10.546-19.391 3.402-9.866 8.505-7.484 8.505 3.402 0 12.247 4.423 15.649 10.546 8.505 3.402-4.082 3.402-6.804 0.34-11.907-4.082-6.124-3.062-6.464 18.031-6.464h22.113v23.814c0 19.051-1.021 23.814-5.103 23.814s-5.103-4.763-5.103-22.113zM939.971 241.499c-3.062-5.103-4.423-28.577-2.041-37.422 0.68-3.402 4.423-6.124 8.165-6.124 6.124 0 6.464 0.68 1.701 5.103-2.722 3.062-4.423 7.484-3.402 10.206 3.062 7.825 6.124 6.124 10.546-5.103 3.062-8.165 5.783-10.206 13.608-10.206 11.907 0 15.309 2.722 20.752 14.969 3.402 7.484 5.443 8.845 8.505 5.783s2.722-5.443-0.34-10.886c-5.103-8.165-3.402-11.567 4.423-8.505 8.165 3.062 5.103 20.072-4.423 24.154-4.082 1.701-8.505 6.464-9.526 10.206-1.361 3.742-4.082 7.825-6.124 9.185-6.464 4.423-38.783 3.062-41.845-1.361zM953.579 236.396c-3.742-10.546-5.103-11.907-7.825-7.484-3.742 5.443-0.34 13.268 5.443 13.268 2.722 0 3.742-2.041 2.381-5.783zM979.094 232.654c1.021-5.783-0.34-7.484-7.144-7.484-10.546 0-12.928 3.062-8.845 10.886 4.423 8.505 14.629 6.464 15.989-3.402zM979.774 217.005c0-8.505-4.082-15.649-8.845-15.649-5.443 0-12.587 12.587-9.866 17.010 3.402 5.443 18.711 4.082 18.711-1.361zM1025.361 240.478c-1.361-2.722-1.021-7.825 0.34-10.886 2.381-5.443 2.722-5.443 4.423 0.68 2.041 10.546 7.144 14.288 10.886 8.505 4.082-6.464 4.423-27.216 0.34-33.68-3.402-5.443-10.546-2.041-10.546 5.103 0 2.722-1.701 4.763-3.742 4.763s-3.062-3.402-2.381-7.484c0.68-5.783 3.742-8.165 10.886-8.845 5.443-0.68 10.886 0.68 12.587 3.402 3.402 5.103 4.082 30.278 1.021 38.102-2.722 7.144-21.433 7.144-23.814 0.34zM1075.030 238.777c-12.247-12.247-5.443-32.319 10.546-29.938 12.247 1.701 13.268 15.309 1.361 19.732-7.825 3.062-8.505 4.423-5.103 8.505 5.443 6.804 18.371 6.464 23.814-0.34 3.742-4.082 3.402-6.124-1.021-10.546-5.103-5.103-5.103-6.124-0.34-11.567 7.825-8.845 3.062-13.268-13.608-13.268-15.989 0-23.814-5.783-20.412-14.969 2.722-6.804 13.268-9.526 30.278-8.165 20.072 1.701 18.031 7.825-2.381 7.825-13.608 0-18.031 1.361-18.031 5.103s4.763 5.443 17.010 6.804l17.010 1.701 0.68 18.371c0.34 10.206-1.021 20.752-3.062 23.134-5.783 7.144-28.917 5.443-36.742-2.381zM1085.916 214.283c-5.103-5.103-8.845-1.361-6.124 6.124 1.701 4.423 3.062 5.103 6.124 2.041s3.062-5.103 0-8.165z" />
<glyph unicode="&#xe91f;" glyph-name="book" d="M896 832v-832h-672c-53.026 0-96 42.98-96 96s42.974 96 96 96h608v768h-640c-70.398 0-128-57.6-128-128v-768c0-70.4 57.602-128 128-128h768v896h-64zM224.056 128v0c-0.018-0.002-0.038 0-0.056 0-17.672 0-32-14.326-32-32s14.328-32 32-32c0.018 0 0.038 0.002 0.056 0.002v-0.002h607.89v64h-607.89z" />
<glyph unicode="&#xe923;" glyph-name="profile" d="M864 960h-768c-52.8 0-96-43.2-96-96v-832c0-52.8 43.2-96 96-96h768c52.8 0 96 43.2 96 96v832c0 52.8-43.2 96-96 96zM832 64h-704v768h704v-768zM256 384h448v-64h-448zM256 256h448v-64h-448zM320 672c0 53.019 42.981 96 96 96s96-42.981 96-96c0-53.019-42.981-96-96-96s-96 42.981-96 96zM480 576h-128c-52.8 0-96-28.8-96-64v-64h320v64c0 35.2-43.2 64-96 64z" />
<glyph unicode="&#xe926;" glyph-name="file-text2" d="M917.806 730.924c-22.212 30.292-53.174 65.7-87.178 99.704s-69.412 64.964-99.704 87.178c-51.574 37.82-76.592 42.194-90.924 42.194h-496c-44.112 0-80-35.888-80-80v-864c0-44.112 35.888-80 80-80h736c44.112 0 80 35.888 80 80v624c0 14.332-4.372 39.35-42.194 90.924zM785.374 785.374c30.7-30.7 54.8-58.398 72.58-81.374h-153.954v153.946c22.984-17.78 50.678-41.878 81.374-72.572zM896 16c0-8.672-7.328-16-16-16h-736c-8.672 0-16 7.328-16 16v864c0 8.672 7.328 16 16 16 0 0 495.956 0.002 496 0v-224c0-17.672 14.326-32 32-32h224v-624zM736 128h-448c-17.672 0-32 14.326-32 32s14.328 32 32 32h448c17.674 0 32-14.326 32-32s-14.326-32-32-32zM736 256h-448c-17.672 0-32 14.326-32 32s14.328 32 32 32h448c17.674 0 32-14.326 32-32s-14.326-32-32-32zM736 384h-448c-17.672 0-32 14.326-32 32s14.328 32 32 32h448c17.674 0 32-14.326 32-32s-14.326-32-32-32z" />
<glyph unicode="&#xe927;" glyph-name="file-picture" d="M832 64h-640v128l192 320 263-320 185 128v-256zM832 480c0-53.020-42.98-96-96-96-53.022 0-96 42.98-96 96s42.978 96 96 96c53.020 0 96-42.98 96-96zM917.806 730.924c-22.212 30.292-53.174 65.7-87.178 99.704s-69.412 64.964-99.704 87.178c-51.574 37.82-76.592 42.194-90.924 42.194h-496c-44.112 0-80-35.888-80-80v-864c0-44.112 35.888-80 80-80h736c44.112 0 80 35.888 80 80v624c0 14.332-4.372 39.35-42.194 90.924zM785.374 785.374c30.7-30.7 54.8-58.398 72.58-81.374h-153.954v153.946c22.984-17.78 50.678-41.878 81.374-72.572zM896 16c0-8.672-7.328-16-16-16h-736c-8.672 0-16 7.328-16 16v864c0 8.672 7.328 16 16 16 0 0 495.956 0.002 496 0v-224c0-17.672 14.326-32 32-32h224v-624z" />
<glyph unicode="&#xe937;" glyph-name="barcode" d="M0 832h128v-640h-128zM192 832h64v-640h-64zM320 832h64v-640h-64zM512 832h64v-640h-64zM768 832h64v-640h-64zM960 832h64v-640h-64zM640 832h32v-640h-32zM448 832h32v-640h-32zM864 832h32v-640h-32zM0 128h64v-64h-64zM192 128h64v-64h-64zM320 128h64v-64h-64zM640 128h64v-64h-64zM960 128h64v-64h-64zM768 128h128v-64h-128zM448 128h128v-64h-128z" />
<glyph unicode="&#xe938;" glyph-name="qrcode" d="M320 896h-256v-256h256v256zM384 960v0-384h-384v384h384zM128 832h128v-128h-128zM960 896h-256v-256h256v256zM1024 960v0-384h-384v384h384zM768 832h128v-128h-128zM320 256h-256v-256h256v256zM384 320v0-384h-384v384h384zM128 192h128v-128h-128zM448 960h64v-64h-64zM512 896h64v-64h-64zM448 832h64v-64h-64zM512 768h64v-64h-64zM448 704h64v-64h-64zM512 640h64v-64h-64zM448 576h64v-64h-64zM448 448h64v-64h-64zM512 384h64v-64h-64zM448 320h64v-64h-64zM512 256h64v-64h-64zM448 192h64v-64h-64zM512 128h64v-64h-64zM448 64h64v-64h-64zM512 0h64v-64h-64zM960 448h64v-64h-64zM64 448h64v-64h-64zM128 512h64v-64h-64zM0 512h64v-64h-64zM256 512h64v-64h-64zM320 448h64v-64h-64zM384 512h64v-64h-64zM576 448h64v-64h-64zM640 512h64v-64h-64zM704 448h64v-64h-64zM768 512h64v-64h-64zM832 448h64v-64h-64zM896 512h64v-64h-64zM960 320h64v-64h-64zM576 320h64v-64h-64zM640 384h64v-64h-64zM704 320h64v-64h-64zM832 320h64v-64h-64zM896 384h64v-64h-64zM960 192h64v-64h-64zM576 192h64v-64h-64zM640 256h64v-64h-64zM768 256h64v-64h-64zM832 192h64v-64h-64zM896 256h64v-64h-64zM960 64h64v-64h-64zM640 128h64v-64h-64zM704 64h64v-64h-64zM768 128h64v-64h-64zM832 64h64v-64h-64zM640 0h64v-64h-64zM768 0h64v-64h-64zM896 0h64v-64h-64z" />
<glyph unicode="&#xe93a;" glyph-name="cart" d="M384 32c0-53.019-42.981-96-96-96s-96 42.981-96 96c0 53.019 42.981 96 96 96s96-42.981 96-96zM1024 32c0-53.019-42.981-96-96-96s-96 42.981-96 96c0 53.019 42.981 96 96 96s96-42.981 96-96zM1024 448v384h-768c0 35.346-28.654 64-64 64h-192v-64h128l48.074-412.054c-29.294-23.458-48.074-59.5-48.074-99.946 0-70.696 57.308-128 128-128h768v64h-768c-35.346 0-64 28.654-64 64 0 0.218 0.014 0.436 0.016 0.656l831.984 127.344z" />
<glyph unicode="&#xe942;" glyph-name="phone" d="M704 320c-64-64-64-128-128-128s-128 64-192 128-128 128-128 192 64 64 128 128-128 256-192 256-192-192-192-192c0-128 131.5-387.5 256-512s384-256 512-256c0 0 192 128 192 192s-192 256-256 192z" />
<glyph unicode="&#xe944;" glyph-name="address-book" d="M192 960v-1024h768v1024h-768zM576 703.67c70.51 0 127.67-57.16 127.67-127.67s-57.16-127.67-127.67-127.67-127.67 57.16-127.67 127.67 57.16 127.67 127.67 127.67v0zM768 192h-384v64c0 70.696 57.306 128 128 128v0h128c70.696 0 128-57.304 128-128v-64zM64 896h96v-192h-96v192zM64 640h96v-192h-96v192zM64 384h96v-192h-96v192zM64 128h96v-192h-96v192z" />
<glyph unicode="&#xe947;" glyph-name="location" d="M512 960c-176.732 0-320-143.268-320-320 0-320 320-704 320-704s320 384 320 704c0 176.732-143.27 320-320 320zM512 448c-106.040 0-192 85.96-192 192s85.96 192 192 192 192-85.96 192-192-85.96-192-192-192z" />
<glyph unicode="&#xe948;" glyph-name="location2" d="M512 960c-176.732 0-320-143.268-320-320 0-320 320-704 320-704s320 384 320 704c0 176.732-143.27 320-320 320zM512 444c-108.248 0-196 87.752-196 196s87.752 196 196 196 196-87.752 196-196-87.752-196-196-196zM388 640c0 68.483 55.517 124 124 124s124-55.517 124-124c0-68.483-55.517-124-124-124s-124 55.517-124 124z" />
<glyph unicode="&#xe94f;" glyph-name="clock2" d="M512 960c-282.77 0-512-229.23-512-512s229.23-512 512-512 512 229.23 512 512-229.23 512-512 512zM658.744 210.744l-210.744 210.746v282.51h128v-229.49l173.256-173.254-90.512-90.512z" />
<glyph unicode="&#xe950;" glyph-name="alarm" d="M512 832c-247.424 0-448-200.576-448-448s200.576-448 448-448 448 200.576 448 448-200.576 448-448 448zM512 24c-198.824 0-360 161.178-360 360 0 198.824 161.176 360 360 360 198.822 0 360-161.176 360-360 0-198.822-161.178-360-360-360zM934.784 672.826c16.042 28.052 25.216 60.542 25.216 95.174 0 106.040-85.96 192-192 192-61.818 0-116.802-29.222-151.92-74.596 131.884-27.236 245.206-105.198 318.704-212.578v0zM407.92 885.404c-35.116 45.374-90.102 74.596-151.92 74.596-106.040 0-192-85.96-192-192 0-34.632 9.174-67.122 25.216-95.174 73.5 107.38 186.822 185.342 318.704 212.578zM512 384v256h-64v-320h256v64z" />
<glyph unicode="&#xe951;" glyph-name="bell" d="M1025.5 160c0 288-256 224-256 448 0 18.56-1.788 34.42-5.048 47.928-16.83 113.018-92.156 203.72-189.772 231.36 0.866 3.948 1.32 8.032 1.32 12.21 0 33.278-28.8 60.502-64 60.502s-64-27.224-64-60.5c0-4.18 0.456-8.264 1.32-12.21-109.47-30.998-190.914-141.298-193.254-273.442-0.040-1.92-0.066-3.864-0.066-5.846 0-224.002-256-160.002-256-448.002 0-76.226 170.59-139.996 398.97-156.080 21.524-40.404 64.056-67.92 113.030-67.92s91.508 27.516 113.030 67.92c228.38 16.084 398.97 79.854 398.97 156.080 0 0.228-0.026 0.456-0.028 0.682l1.528-0.682zM826.246 105.904c-54.23-14.47-118.158-24.876-186.768-30.648-5.704 65.418-60.582 116.744-127.478 116.744s-121.774-51.326-127.478-116.744c-68.608 5.772-132.538 16.178-186.768 30.648-74.63 19.914-110.31 42.19-123.368 54.096 13.058 11.906 48.738 34.182 123.368 54.096 86.772 23.152 198.372 35.904 314.246 35.904s227.474-12.752 314.246-35.904c74.63-19.914 110.31-42.19 123.368-54.096-13.058-11.906-48.738-34.182-123.368-54.096z" />
<glyph unicode="&#xe971;" glyph-name="user" d="M576 253.388v52.78c70.498 39.728 128 138.772 128 237.832 0 159.058 0 288-192 288s-192-128.942-192-288c0-99.060 57.502-198.104 128-237.832v-52.78c-217.102-17.748-384-124.42-384-253.388h896c0 128.968-166.898 235.64-384 253.388z" />
<glyph unicode="&#xe972;" glyph-name="users" horiz-adv-x="1152" d="M768 189.388v52.78c70.498 39.728 128 138.772 128 237.832 0 159.058 0 288-192 288s-192-128.942-192-288c0-99.060 57.502-198.104 128-237.832v-52.78c-217.102-17.748-384-124.42-384-253.388h896c0 128.968-166.898 235.64-384 253.388zM327.196 164.672c55.31 36.15 124.080 63.636 199.788 80.414-15.054 17.784-28.708 37.622-40.492 59.020-30.414 55.234-46.492 116.058-46.492 175.894 0 86.042 0 167.31 30.6 233.762 29.706 64.504 83.128 104.496 159.222 119.488-16.914 76.48-61.94 126.75-181.822 126.75-192 0-192-128.942-192-288 0-99.060 57.502-198.104 128-237.832v-52.78c-217.102-17.748-384-124.42-384-253.388h279.006c14.518 12.91 30.596 25.172 48.19 36.672z" />
<glyph unicode="&#xe973;" glyph-name="user-plus" d="M384 224c0 151.234 95.874 280.486 230.032 330.2 16.28 36.538 25.968 77.164 25.968 117.8 0 159.058 0 288-192 288s-192-128.942-192-288c0-99.060 57.502-198.104 128-237.832v-52.78c-217.102-17.748-384-124.42-384-253.388h397.306c-8.664 30.53-13.306 62.732-13.306 96zM736 512c-159.058 0-288-128.942-288-288s128.942-288 288-288c159.056 0 288 128.942 288 288s-128.942 288-288 288zM896 192h-128v-128h-64v128h-128v64h128v128h64v-128h128v-64z" />
<glyph unicode="&#xe974;" glyph-name="user-minus" d="M384 224c0 151.234 95.874 280.486 230.032 330.2 16.28 36.538 25.968 77.164 25.968 117.8 0 159.058 0 288-192 288s-192-128.942-192-288c0-99.060 57.502-198.104 128-237.832v-52.78c-217.102-17.748-384-124.42-384-253.388h397.306c-8.664 30.53-13.306 62.732-13.306 96zM736 512c-159.058 0-288-128.942-288-288s128.942-288 288-288c159.056 0 288 128.942 288 288s-128.942 288-288 288zM896 192h-320v64h320v-64z" />
<glyph unicode="&#xe975;" glyph-name="user-check" d="M960 352l-288-288-96 96-64-64 160-160 352 352zM448 192h320v115.128c-67.22 39.2-156.308 66.11-256 74.26v52.78c70.498 39.728 128 138.772 128 237.832 0 159.058 0 288-192 288s-192-128.942-192-288c0-99.060 57.502-198.104 128-237.832v-52.78c-217.102-17.748-384-124.42-384-253.388h448v64z" />
<glyph unicode="&#xe994;" glyph-name="cog" d="M933.79 349.75c-53.726 93.054-21.416 212.304 72.152 266.488l-100.626 174.292c-28.75-16.854-62.176-26.518-97.846-26.518-107.536 0-194.708 87.746-194.708 195.99h-201.258c0.266-33.41-8.074-67.282-25.958-98.252-53.724-93.056-173.156-124.702-266.862-70.758l-100.624-174.292c28.97-16.472 54.050-40.588 71.886-71.478 53.638-92.908 21.512-211.92-71.708-266.224l100.626-174.292c28.65 16.696 61.916 26.254 97.4 26.254 107.196 0 194.144-87.192 194.7-194.958h201.254c-0.086 33.074 8.272 66.57 25.966 97.218 53.636 92.906 172.776 124.594 266.414 71.012l100.626 174.29c-28.78 16.466-53.692 40.498-71.434 71.228zM512 240.668c-114.508 0-207.336 92.824-207.336 207.334 0 114.508 92.826 207.334 207.336 207.334 114.508 0 207.332-92.826 207.332-207.334-0.002-114.51-92.824-207.334-207.332-207.334z" />
<glyph unicode="&#xe995;" glyph-name="cogs" d="M363.722 237.948l41.298 57.816-45.254 45.256-57.818-41.296c-10.722 5.994-22.204 10.774-34.266 14.192l-11.682 70.084h-64l-11.68-70.086c-12.062-3.418-23.544-8.198-34.266-14.192l-57.818 41.298-45.256-45.256 41.298-57.816c-5.994-10.72-10.774-22.206-14.192-34.266l-70.086-11.682v-64l70.086-11.682c3.418-12.060 8.198-23.544 14.192-34.266l-41.298-57.816 45.254-45.256 57.818 41.296c10.722-5.994 22.204-10.774 34.266-14.192l11.682-70.084h64l11.68 70.086c12.062 3.418 23.544 8.198 34.266 14.192l57.818-41.296 45.254 45.256-41.298 57.816c5.994 10.72 10.774 22.206 14.192 34.266l70.088 11.68v64l-70.086 11.682c-3.418 12.060-8.198 23.544-14.192 34.266zM224 96c-35.348 0-64 28.654-64 64s28.652 64 64 64 64-28.654 64-64-28.652-64-64-64zM1024 576v64l-67.382 12.25c-1.242 8.046-2.832 15.978-4.724 23.79l57.558 37.1-24.492 59.128-66.944-14.468c-4.214 6.91-8.726 13.62-13.492 20.13l39.006 56.342-45.256 45.254-56.342-39.006c-6.512 4.766-13.22 9.276-20.13 13.494l14.468 66.944-59.128 24.494-37.1-57.558c-7.812 1.892-15.744 3.482-23.79 4.724l-12.252 67.382h-64l-12.252-67.382c-8.046-1.242-15.976-2.832-23.79-4.724l-37.098 57.558-59.128-24.492 14.468-66.944c-6.91-4.216-13.62-8.728-20.13-13.494l-56.342 39.006-45.254-45.254 39.006-56.342c-4.766-6.51-9.278-13.22-13.494-20.13l-66.944 14.468-24.492-59.128 57.558-37.1c-1.892-7.812-3.482-15.742-4.724-23.79l-67.384-12.252v-64l67.382-12.25c1.242-8.046 2.832-15.978 4.724-23.79l-57.558-37.1 24.492-59.128 66.944 14.468c4.216-6.91 8.728-13.618 13.494-20.13l-39.006-56.342 45.254-45.256 56.342 39.006c6.51-4.766 13.22-9.276 20.13-13.492l-14.468-66.944 59.128-24.492 37.102 57.558c7.81-1.892 15.742-3.482 23.788-4.724l12.252-67.384h64l12.252 67.382c8.044 1.242 15.976 2.832 23.79 4.724l37.1-57.558 59.128 24.492-14.468 66.944c6.91 4.216 13.62 8.726 20.13 13.492l56.342-39.006 45.256 45.256-39.006 56.342c4.766 6.512 9.276 13.22 13.492 20.13l66.944-14.468 24.492 59.13-57.558 37.1c1.892 7.812 3.482 15.742 4.724 23.79l67.382 12.25zM672 468.8c-76.878 0-139.2 62.322-139.2 139.2s62.32 139.2 139.2 139.2 139.2-62.322 139.2-139.2c0-76.878-62.32-139.2-139.2-139.2z" />
<glyph unicode="&#xe9ac;" glyph-name="bin" d="M128 640v-640c0-35.2 28.8-64 64-64h576c35.2 0 64 28.8 64 64v640h-704zM320 64h-64v448h64v-448zM448 64h-64v448h64v-448zM576 64h-64v448h64v-448zM704 64h-64v448h64v-448zM848 832h-208v80c0 26.4-21.6 48-48 48h-224c-26.4 0-48-21.6-48-48v-80h-208c-26.4 0-48-21.6-48-48v-80h832v80c0 26.4-21.6 48-48 48zM576 832h-192v63.198h192v-63.198z" />
<glyph unicode="&#xe9cd;" glyph-name="attachment" d="M665.832 632.952l-64.952 64.922-324.81-324.742c-53.814-53.792-53.814-141.048 0-194.844 53.804-53.792 141.060-53.792 194.874 0l389.772 389.708c89.714 89.662 89.714 235.062 0 324.726-89.666 89.704-235.112 89.704-324.782 0l-409.23-409.178c-0.29-0.304-0.612-0.576-0.876-0.846-125.102-125.096-125.102-327.856 0-452.906 125.054-125.056 327.868-125.056 452.988 0 0.274 0.274 0.516 0.568 0.82 0.876l0.032-0.034 279.332 279.292-64.986 64.92-279.33-279.262c-0.296-0.268-0.564-0.57-0.846-0.844-89.074-89.058-233.98-89.058-323.076 0-89.062 89.042-89.062 233.922 0 322.978 0.304 0.304 0.604 0.582 0.888 0.846l-0.046 0.060 409.28 409.166c53.712 53.738 141.144 53.738 194.886 0 53.712-53.734 53.712-141.148 0-194.84l-389.772-389.7c-17.936-17.922-47.054-17.922-64.972 0-17.894 17.886-17.894 47.032 0 64.92l324.806 324.782z" />
<glyph unicode="&#xe9ce;" glyph-name="eye" d="M512 768c-223.318 0-416.882-130.042-512-320 95.118-189.958 288.682-320 512-320 223.312 0 416.876 130.042 512 320-95.116 189.958-288.688 320-512 320zM764.45 598.296c60.162-38.374 111.142-89.774 149.434-150.296-38.292-60.522-89.274-111.922-149.436-150.296-75.594-48.218-162.89-73.704-252.448-73.704-89.56 0-176.858 25.486-252.452 73.704-60.158 38.372-111.138 89.772-149.432 150.296 38.292 60.524 89.274 111.924 149.434 150.296 3.918 2.5 7.876 4.922 11.86 7.3-9.96-27.328-15.41-56.822-15.41-87.596 0-141.382 114.616-256 256-256 141.382 0 256 114.618 256 256 0 30.774-5.452 60.268-15.408 87.598 3.978-2.378 7.938-4.802 11.858-7.302v0zM512 544c0-53.020-42.98-96-96-96s-96 42.98-96 96 42.98 96 96 96 96-42.982 96-96z" />
<glyph unicode="&#xe9d1;" glyph-name="eye-blocked" d="M945.942 945.942c-18.746 18.744-49.136 18.744-67.882 0l-202.164-202.164c-51.938 15.754-106.948 24.222-163.896 24.222-223.318 0-416.882-130.042-512-320 41.122-82.124 100.648-153.040 173.022-207.096l-158.962-158.962c-18.746-18.746-18.746-49.136 0-67.882 9.372-9.374 21.656-14.060 33.94-14.060s24.568 4.686 33.942 14.058l864 864c18.744 18.746 18.744 49.138 0 67.884zM416 640c42.24 0 78.082-27.294 90.92-65.196l-121.724-121.724c-37.902 12.838-65.196 48.68-65.196 90.92 0 53.020 42.98 96 96 96zM110.116 448c38.292 60.524 89.274 111.924 149.434 150.296 3.918 2.5 7.876 4.922 11.862 7.3-9.962-27.328-15.412-56.822-15.412-87.596 0-54.89 17.286-105.738 46.7-147.418l-60.924-60.924c-52.446 36.842-97.202 83.882-131.66 138.342zM768 518c0 27.166-4.256 53.334-12.102 77.898l-321.808-321.808c24.568-7.842 50.742-12.090 77.91-12.090 141.382 0 256 114.618 256 256zM830.026 670.026l-69.362-69.362c1.264-0.786 2.53-1.568 3.786-2.368 60.162-38.374 111.142-89.774 149.434-150.296-38.292-60.522-89.274-111.922-149.436-150.296-75.594-48.218-162.89-73.704-252.448-73.704-38.664 0-76.902 4.76-113.962 14.040l-76.894-76.894c59.718-21.462 123.95-33.146 190.856-33.146 223.31 0 416.876 130.042 512 320-45.022 89.916-112.118 166.396-193.974 222.026z" />
<glyph unicode="&#xe9e1;" glyph-name="smile" d="M512-64c282.77 0 512 229.23 512 512s-229.23 512-512 512-512-229.23-512-512 229.23-512 512-512zM512 864c229.75 0 416-186.25 416-416s-186.25-416-416-416-416 186.25-416 416 186.25 416 416 416zM256 640c0 35.346 28.654 64 64 64s64-28.654 64-64c0-35.346-28.654-64-64-64s-64 28.654-64 64zM640 640c0 35.346 28.654 64 64 64s64-28.654 64-64c0-35.346-28.654-64-64-64s-64 28.654-64 64zM704.098 332.74l82.328-49.396c-55.962-93.070-157.916-155.344-274.426-155.344s-218.464 62.274-274.426 155.344l82.328 49.396c39.174-65.148 110.542-108.74 192.098-108.74s152.924 43.592 192.098 108.74z" />
<glyph unicode="&#xe9e5;" glyph-name="sad" d="M512-64c282.77 0 512 229.23 512 512s-229.23 512-512 512-512-229.23-512-512 229.23-512 512-512zM512 864c229.75 0 416-186.25 416-416s-186.25-416-416-416-416 186.25-416 416 186.25 416 416 416zM256 640c0 35.346 28.654 64 64 64s64-28.654 64-64c0-35.346-28.654-64-64-64s-64 28.654-64 64zM640 640c0 35.346 28.654 64 64 64s64-28.654 64-64c0-35.346-28.654-64-64-64s-64 28.654-64 64zM319.902 179.26l-82.328 49.396c55.962 93.070 157.916 155.344 274.426 155.344 116.508 0 218.462-62.274 274.426-155.344l-82.328-49.396c-39.174 65.148-110.542 108.74-192.098 108.74-81.558 0-152.924-43.592-192.098-108.74z" />
<glyph unicode="&#xe9f7;" glyph-name="neutral" d="M512-64c282.77 0 512 229.23 512 512s-229.23 512-512 512-512-229.23-512-512 229.23-512 512-512zM512 864c229.75 0 416-186.25 416-416s-186.25-416-416-416-416 186.25-416 416 186.25 416 416 416zM256 640c0-35.346 28.654-64 64-64s64 28.654 64 64-28.654 64-64 64-64-28.654-64-64zM640 640c0-35.346 28.654-64 64-64s64 28.654 64 64-28.654 64-64 64-64-28.654-64-64zM384 256h256v-64h-256v64z" />
<glyph unicode="&#xea07;" glyph-name="warning" d="M512 867.226l429.102-855.226h-858.206l429.104 855.226zM512 960c-22.070 0-44.14-14.882-60.884-44.648l-437.074-871.112c-33.486-59.532-5-108.24 63.304-108.24h869.308c68.3 0 96.792 48.708 63.3 108.24h0.002l-437.074 871.112c-16.742 29.766-38.812 44.648-60.882 44.648v0zM576 128c0-35.346-28.654-64-64-64s-64 28.654-64 64c0 35.346 28.654 64 64 64s64-28.654 64-64zM512 256c-35.346 0-64 28.654-64 64v192c0 35.346 28.654 64 64 64s64-28.654 64-64v-192c0-35.346-28.654-64-64-64z" />
<glyph unicode="&#xea08;" glyph-name="notification" d="M512 864c-111.118 0-215.584-43.272-294.156-121.844s-121.844-183.038-121.844-294.156c0-111.118 43.272-215.584 121.844-294.156s183.038-121.844 294.156-121.844c111.118 0 215.584 43.272 294.156 121.844s121.844 183.038 121.844 294.156c0 111.118-43.272 215.584-121.844 294.156s-183.038 121.844-294.156 121.844zM512 960v0c282.77 0 512-229.23 512-512s-229.23-512-512-512c-282.77 0-512 229.23-512 512s229.23 512 512 512zM448 256h128v-128h-128zM448 768h128v-384h-128z" />
<glyph unicode="&#xea09;" glyph-name="question" d="M448 256h128v-128h-128zM704 704c35.346 0 64-28.654 64-64v-192l-192-128h-128v64l192 128v64h-320v128h384zM512 864c-111.118 0-215.584-43.272-294.156-121.844s-121.844-183.038-121.844-294.156c0-111.118 43.272-215.584 121.844-294.156s183.038-121.844 294.156-121.844c111.118 0 215.584 43.272 294.156 121.844s121.844 183.038 121.844 294.156c0 111.118-43.272 215.584-121.844 294.156s-183.038 121.844-294.156 121.844zM512 960v0c282.77 0 512-229.23 512-512s-229.23-512-512-512c-282.77 0-512 229.23-512 512s229.23 512 512 512z" />
<glyph unicode="&#xea0a;" glyph-name="plus" d="M992 576h-352v352c0 17.672-14.328 32-32 32h-192c-17.672 0-32-14.328-32-32v-352h-352c-17.672 0-32-14.328-32-32v-192c0-17.672 14.328-32 32-32h352v-352c0-17.672 14.328-32 32-32h192c17.672 0 32 14.328 32 32v352h352c17.672 0 32 14.328 32 32v192c0 17.672-14.328 32-32 32z" />
<glyph unicode="&#xea0b;" glyph-name="minus" d="M0 544v-192c0-17.672 14.328-32 32-32h960c17.672 0 32 14.328 32 32v192c0 17.672-14.328 32-32 32h-960c-17.672 0-32-14.328-32-32z" />
<glyph unicode="&#xea0d;" glyph-name="cancel-circle" d="M512 960c-282.77 0-512-229.23-512-512s229.23-512 512-512 512 229.23 512 512-229.23 512-512 512zM512 32c-229.75 0-416 186.25-416 416s186.25 416 416 416 416-186.25 416-416-186.25-416-416-416zM672 704l-160-160-160 160-96-96 160-160-160-160 96-96 160 160 160-160 96 96-160 160 160 160z" />
<glyph unicode="&#xea0e;" glyph-name="blocked" d="M874.040 810.040c-96.706 96.702-225.28 149.96-362.040 149.96s-265.334-53.258-362.040-149.96c-96.702-96.706-149.96-225.28-149.96-362.040s53.258-265.334 149.96-362.040c96.706-96.702 225.28-149.96 362.040-149.96s265.334 53.258 362.040 149.96c96.702 96.706 149.96 225.28 149.96 362.040s-53.258 265.334-149.96 362.040zM896 448c0-82.814-26.354-159.588-71.112-222.38l-535.266 535.268c62.792 44.758 139.564 71.112 222.378 71.112 211.738 0 384-172.262 384-384zM128 448c0 82.814 26.354 159.586 71.112 222.378l535.27-535.268c-62.794-44.756-139.568-71.11-222.382-71.11-211.738 0-384 172.262-384 384z" />
<glyph unicode="&#xea0f;" glyph-name="cross" d="M1014.662 137.34c-0.004 0.004-0.008 0.008-0.012 0.010l-310.644 310.65 310.644 310.65c0.004 0.004 0.008 0.006 0.012 0.010 3.344 3.346 5.762 7.254 7.312 11.416 4.246 11.376 1.824 24.682-7.324 33.83l-146.746 146.746c-9.148 9.146-22.45 11.566-33.828 7.32-4.16-1.55-8.070-3.968-11.418-7.31 0-0.004-0.004-0.006-0.008-0.010l-310.648-310.652-310.648 310.65c-0.004 0.004-0.006 0.006-0.010 0.010-3.346 3.342-7.254 5.76-11.414 7.31-11.38 4.248-24.682 1.826-33.83-7.32l-146.748-146.748c-9.148-9.148-11.568-22.452-7.322-33.828 1.552-4.16 3.97-8.072 7.312-11.416 0.004-0.002 0.006-0.006 0.010-0.010l310.65-310.648-310.65-310.652c-0.002-0.004-0.006-0.006-0.008-0.010-3.342-3.346-5.76-7.254-7.314-11.414-4.248-11.376-1.826-24.682 7.322-33.83l146.748-146.746c9.15-9.148 22.452-11.568 33.83-7.322 4.16 1.552 8.070 3.97 11.416 7.312 0.002 0.004 0.006 0.006 0.010 0.010l310.648 310.65 310.648-310.65c0.004-0.002 0.008-0.006 0.012-0.008 3.348-3.344 7.254-5.762 11.414-7.314 11.378-4.246 24.684-1.826 33.828 7.322l146.746 146.748c9.148 9.148 11.57 22.454 7.324 33.83-1.552 4.16-3.97 8.068-7.314 11.414z" />
<glyph unicode="&#xea10;" glyph-name="checkmark" d="M864 832l-480-480-224 224-160-160 384-384 640 640z" />
<glyph unicode="&#xea11;" glyph-name="checkmark2" d="M397.434 42.304l-397.868 391.6 197.378 194.27 200.49-197.332 429.62 422.852 197.378-194.27-626.998-617.12zM107.912 433.904l289.524-284.962 518.656 510.482-89.036 87.632-429.62-422.852-200.49 197.334-89.034-87.634z" />
<glyph unicode="&#xea1c;" glyph-name="play3" d="M192 832l640-384-640-384z" />
<glyph unicode="&#xea3a;" glyph-name="arrow-up2" d="M877.254 557.254l-320 320c-24.992 24.994-65.514 24.994-90.508 0l-320-320c-24.994-24.994-24.994-65.516 0-90.51 24.994-24.996 65.516-24.996 90.51 0l210.744 210.746v-613.49c0-35.346 28.654-64 64-64s64 28.654 64 64v613.49l210.746-210.746c12.496-12.496 28.876-18.744 45.254-18.744s32.758 6.248 45.254 18.746c24.994 24.994 24.994 65.514 0 90.508z" />
<glyph unicode="&#xea3c;" glyph-name="arrow-right2" d="M621.254 82.746l320 320c24.994 24.992 24.994 65.516 0 90.51l-320 320c-24.994 24.992-65.516 24.992-90.51 0-24.994-24.994-24.994-65.516 0-90.51l210.746-210.746h-613.49c-35.346 0-64-28.654-64-64s28.654-64 64-64h613.49l-210.746-210.746c-12.496-12.496-18.744-28.876-18.744-45.254s6.248-32.758 18.744-45.254c24.994-24.994 65.516-24.994 90.51 0z" />
<glyph unicode="&#xea3e;" glyph-name="arrow-down2" d="M877.254 338.746l-320-320c-24.992-24.994-65.514-24.994-90.508 0l-320 320c-24.994 24.994-24.994 65.516 0 90.51 24.994 24.996 65.516 24.996 90.51 0l210.744-210.746v613.49c0 35.346 28.654 64 64 64s64-28.654 64-64v-613.49l210.746 210.746c12.496 12.496 28.876 18.744 45.254 18.744s32.758-6.248 45.254-18.746c24.994-24.994 24.994-65.514 0-90.508z" />
<glyph unicode="&#xea40;" glyph-name="arrow-left2" d="M402.746 82.746l-320 320c-24.994 24.992-24.994 65.516 0 90.51l320 320c24.994 24.992 65.516 24.992 90.51 0 24.994-24.994 24.994-65.516 0-90.51l-210.746-210.746h613.49c35.346 0 64-28.654 64-64s-28.654-64-64-64h-613.49l210.746-210.746c12.496-12.496 18.744-28.876 18.744-45.254s-6.248-32.758-18.744-45.254c-24.994-24.994-65.516-24.994-90.51 0z" />
<glyph unicode="&#xea41;" glyph-name="circle-up" d="M0 448c0-282.77 229.23-512 512-512s512 229.23 512 512-229.23 512-512 512-512-229.23-512-512zM928 448c0-229.75-186.25-416-416-416s-416 186.25-416 416 186.25 416 416 416 416-186.25 416-416zM706.744 290.744l90.512 90.512-285.256 285.254-285.254-285.256 90.508-90.508 194.746 194.744z" />
<glyph unicode="&#xea42;" glyph-name="circle-right" d="M512 960c-282.77 0-512-229.23-512-512s229.23-512 512-512 512 229.23 512 512-229.23 512-512 512zM512 32c-229.75 0-416 186.25-416 416s186.25 416 416 416 416-186.25 416-416-186.25-416-416-416zM354.744 253.256l90.512-90.512 285.254 285.256-285.256 285.254-90.508-90.508 194.744-194.746z" />
<glyph unicode="&#xea43;" glyph-name="circle-down" d="M1024 448c0 282.77-229.23 512-512 512s-512-229.23-512-512 229.23-512 512-512 512 229.23 512 512zM96 448c0 229.75 186.25 416 416 416s416-186.25 416-416-186.25-416-416-416-416 186.25-416 416zM317.256 605.256l-90.512-90.512 285.256-285.254 285.254 285.256-90.508 90.508-194.746-194.744z" />
<glyph unicode="&#xea44;" glyph-name="circle-left" d="M512-64c282.77 0 512 229.23 512 512s-229.23 512-512 512-512-229.23-512-512 229.23-512 512-512zM512 864c229.75 0 416-186.25 416-416s-186.25-416-416-416-416 186.25-416 416 186.25 416 416 416zM669.256 642.744l-90.512 90.512-285.254-285.256 285.256-285.254 90.508 90.508-194.744 194.746z" />
<glyph unicode="&#xea52;" glyph-name="checkbox-checked" d="M896 960h-768c-70.4 0-128-57.6-128-128v-768c0-70.4 57.6-128 128-128h768c70.4 0 128 57.6 128 128v768c0 70.4-57.6 128-128 128zM448 165.49l-237.254 237.256 90.51 90.508 146.744-146.744 306.746 306.746 90.508-90.51-397.254-397.256z" />
<glyph unicode="&#xea53;" glyph-name="checkbox-unchecked" d="M896 960h-768c-70.4 0-128-57.6-128-128v-768c0-70.4 57.6-128 128-128h768c70.4 0 128 57.6 128 128v768c0 70.4-57.6 128-128 128zM896 64h-768v768h768v-768z" />
<glyph unicode="&#xea54;" glyph-name="radio-checked" d="M512 960c-282.77 0-512-229.23-512-512s229.23-512 512-512 512 229.23 512 512-229.23 512-512 512zM512 64c-212.078 0-384 171.922-384 384s171.922 384 384 384c212.078 0 384-171.922 384-384s-171.922-384-384-384zM320 448c0 106.039 85.961 192 192 192s192-85.961 192-192c0-106.039-85.961-192-192-192s-192 85.961-192 192z" />
<glyph unicode="&#xea56;" glyph-name="radio-unchecked" d="M512 960c-282.77 0-512-229.23-512-512s229.23-512 512-512 512 229.23 512 512-229.23 512-512 512zM512 64c-212.078 0-384 171.922-384 384s171.922 384 384 384c212.078 0 384-171.922 384-384s-171.922-384-384-384z" />
<glyph unicode="&#xea5b;" glyph-name="filter" d="M512 960c-282.77 0-512-71.634-512-160v-96l384-384v-320c0-35.346 57.306-64 128-64 70.692 0 128 28.654 128 64v320l384 384v96c0 88.366-229.23 160-512 160zM94.384 821.176c23.944 13.658 57.582 26.62 97.278 37.488 87.944 24.076 201.708 37.336 320.338 37.336 118.628 0 232.394-13.26 320.338-37.336 39.696-10.868 73.334-23.83 97.28-37.488 15.792-9.006 24.324-16.624 28.296-21.176-3.972-4.552-12.506-12.168-28.296-21.176-23.946-13.658-57.584-26.62-97.28-37.488-87.942-24.076-201.708-37.336-320.338-37.336s-232.394 13.26-320.338 37.336c-39.696 10.868-73.334 23.83-97.278 37.488-15.792 9.008-24.324 16.624-28.298 21.176 3.974 4.552 12.506 12.168 28.298 21.176z" />
<glyph unicode="&#xea73;" glyph-name="pilcrow" d="M384 960h512v-128h-128v-896h-128v896h-128v-896h-128v512c-141.384 0-256 114.616-256 256s114.616 256 256 256z" />
<glyph unicode="&#xea7a;" glyph-name="paragraph-justify" d="M0 896h1024v-128h-1024zM0 704h1024v-128h-1024zM0 512h1024v-128h-1024zM0 320h1024v-128h-1024zM0 128h1024v-128h-1024z" />
<glyph unicode="&#xea86;" glyph-name="mail4" d="M512 960c-282.77 0-512-229.23-512-512s229.23-512 512-512 512 229.23 512 512-229.23 512-512 512zM256 704h512c9.138 0 18.004-1.962 26.144-5.662l-282.144-329.168-282.144 329.17c8.14 3.696 17.006 5.66 26.144 5.66zM192 256v384c0 1.34 0.056 2.672 0.14 4l187.664-218.942-185.598-185.598c-1.444 5.336-2.206 10.886-2.206 16.54zM768 192h-512c-5.654 0-11.202 0.762-16.54 2.208l182.118 182.118 90.422-105.498 90.424 105.494 182.116-182.12c-5.34-1.44-10.886-2.202-16.54-2.202zM832 256c0-5.654-0.762-11.2-2.206-16.54l-185.6 185.598 187.666 218.942c0.084-1.328 0.14-2.66 0.14-4v-384z" />
</font>
</defs>
</svg>
